<?xml version="1.0" standalone="no"?>
<!DOCTYPE svg PUBLIC "-//W3C//DTD SVG 20010904//EN"
 "http://www.w3.org/TR/2001/REC-SVG-20010904/DTD/svg10.dtd">
<svg version="1.0" xmlns="http://www.w3.org/2000/svg"
 width="1357.000000pt" height="570.000000pt" viewBox="0 0 1357.000000 570.000000"
 preserveAspectRatio="xMidYMid meet">

<g transform="translate(0.000000,570.000000) scale(0.100000,-0.100000)"
fill="#fff" stroke="none">
<path d="M2275 5056 c-104 -33 -187 -105 -236 -203 -20 -39 -24 -63 -24 -133
1 -104 24 -160 100 -235 77 -78 131 -100 240 -100 83 0 95 2 153 34 109 59
179 162 189 280 14 151 -100 308 -256 355 -64 19 -111 19 -166 2z"/>
<path d="M3319 4831 c-42 -23 -48 -31 -84 -96 -93 -170 -304 -374 -534 -515
l-101 -62 22 -37 c12 -20 27 -45 35 -55 7 -11 20 -52 29 -93 l16 -72 41 21
c64 32 194 120 298 200 201 155 371 342 439 482 l41 84 -21 54 c-11 30 -31 65
-44 77 -33 31 -92 36 -137 12z"/>
<path d="M2192 4197 c-98 -31 -325 -395 -415 -667 -20 -58 -45 -154 -56 -213
-23 -116 -29 -296 -13 -338 9 -23 7 -30 -20 -55 l-30 -29 -190 98 c-157 82
-193 96 -203 85 -6 -7 -37 -61 -68 -119 l-56 -106 122 -63 c81 -43 132 -63
152 -62 34 2 45 -4 61 -33 12 -22 64 -53 261 -157 85 -45 134 -65 138 -58 4 7
19 9 36 5 16 -4 29 -2 29 3 0 5 9 58 20 118 l19 108 -21 23 c-16 18 -19 30
-15 60 4 27 0 51 -14 82 -18 41 -18 47 -5 76 8 17 20 71 26 120 30 238 90 463
171 633 50 108 95 174 180 268 27 30 51 65 55 79 9 34 -31 112 -70 136 -34 21
-46 22 -94 6z m-369 -1294 c57 -7 77 -29 77 -85 0 -21 -3 -38 -6 -38 -13 0
-194 94 -194 101 0 14 45 39 60 33 8 -3 37 -8 63 -11z"/>
<path d="M4008 3914 c-54 -29 -63 -82 -21 -126 34 -36 72 -36 107 -2 32 33 34
74 4 108 -30 32 -57 38 -90 20z"/>
<path d="M4543 3915 c-58 -25 -64 -102 -11 -139 33 -23 69 -20 101 9 33 31 35
72 7 107 -24 31 -59 39 -97 23z"/>
<path d="M5891 3913 c-39 -19 -53 -59 -36 -100 25 -58 89 -71 130 -27 30 32
32 72 5 106 -25 32 -60 39 -99 21z"/>
<path d="M6880 3855 l0 -45 80 0 80 0 0 -295 0 -295 -90 0 -90 0 0 -50 0 -50
235 0 235 0 0 50 0 50 -80 0 -80 0 -2 338 -3 337 -142 3 -143 3 0 -46z"/>
<path d="M9380 3510 l0 -390 60 0 60 0 0 141 c0 100 3 140 11 137 6 -2 57 -64
113 -138 l101 -135 73 -3 c49 -2 72 1 72 9 0 6 -39 59 -87 117 -49 59 -100
123 -114 142 l-27 36 27 35 c30 39 84 101 121 138 14 14 36 38 49 54 l24 27
-75 0 -76 0 -98 -120 c-55 -65 -102 -119 -106 -120 -5 0 -8 104 -8 230 l0 230
-60 0 -60 0 0 -390z"/>
<path d="M3248 3842 l-58 -14 0 -74 0 -74 -81 0 -80 0 3 -47 3 -48 78 -3 77
-3 0 -169 c0 -187 7 -214 63 -259 38 -32 135 -50 197 -39 96 19 90 14 90 63
l0 44 -82 -6 c-75 -5 -86 -3 -110 17 l-28 21 0 165 0 164 111 0 110 0 -3 48
-3 47 -107 3 -108 3 0 84 c0 46 -3 86 -7 88 -5 2 -34 -3 -65 -11z"/>
<path d="M5135 3843 c-27 -8 -53 -20 -57 -27 -4 -6 -8 -39 -8 -73 l0 -63 -76
0 -75 0 3 -47 3 -48 72 -3 71 -3 4 -172 c3 -140 7 -178 21 -205 21 -39 79 -78
127 -87 64 -11 71 -11 133 0 l62 11 3 46 3 46 -78 -5 c-74 -5 -81 -4 -108 20
l-30 25 -3 161 -4 161 111 0 111 0 0 50 0 50 -110 0 -110 0 0 90 c0 50 -3 90
-7 89 -5 0 -30 -7 -58 -16z"/>
<path d="M3870 3680 c-153 -5 -155 -5 -158 -29 -2 -12 -1 -34 2 -47 6 -24 8
-24 136 -24 l130 0 0 -255 c0 -279 -5 -306 -56 -325 -36 -14 -113 -12 -167 4
-25 7 -48 11 -51 8 -4 -3 -6 -27 -6 -53 l0 -47 51 -12 c29 -7 83 -10 124 -8
102 7 167 44 207 118 l28 53 0 307 0 308 -42 3 c-24 2 -113 2 -198 -1z"/>
<path d="M4503 3682 l-141 -3 -4 -49 -3 -50 78 0 77 0 0 -180 0 -180 -85 0
-85 0 0 -50 0 -50 235 0 235 0 0 50 0 49 -77 3 -78 3 -5 230 -5 230 -142 -3z"/>
<path d="M6316 3676 c-55 -15 -67 -29 -64 -71 3 -34 -1 -33 118 -14 132 21
190 -4 190 -85 l0 -44 -93 -4 c-75 -3 -104 -9 -148 -31 -78 -38 -104 -76 -104
-153 0 -51 4 -66 27 -96 36 -47 102 -73 163 -65 48 7 155 54 155 69 0 4 5 8
11 8 6 0 9 -10 8 -22 -5 -36 9 -48 56 -48 30 0 45 5 49 16 3 9 6 104 6 213 0
184 -1 200 -22 241 -18 35 -35 51 -77 73 -47 23 -66 27 -140 26 -47 0 -108 -6
-135 -13z m242 -353 c-3 -42 -7 -50 -46 -80 -34 -26 -53 -33 -87 -33 -73 0
-109 62 -69 118 23 33 48 41 132 41 l73 1 -3 -47z"/>
<path d="M7625 3671 c-53 -25 -109 -85 -136 -146 -32 -71 -32 -191 0 -262 39
-88 127 -147 232 -156 35 -2 149 12 187 24 30 10 32 14 32 56 0 44 -1 45 -27
39 -16 -3 -68 -9 -118 -12 -75 -4 -96 -2 -124 13 -43 23 -68 57 -77 106 l-6
37 179 0 c126 0 183 4 191 12 29 29 4 162 -43 224 -59 77 -197 108 -290 65z
m175 -96 c23 -21 44 -80 36 -100 -4 -12 -29 -15 -125 -15 l-119 0 7 33 c11 48
28 75 59 92 35 20 115 14 142 -10z"/>
<path d="M8320 3671 c-19 -11 -46 -31 -59 -45 -33 -35 -41 -33 -41 14 l0 40
-55 0 -55 0 0 -280 0 -280 65 0 65 0 0 185 0 184 32 37 c18 20 47 43 65 50 38
16 88 9 100 -15 4 -9 10 -110 13 -226 l5 -210 54 -3 c37 -2 57 1 62 10 5 7 9
99 9 205 0 151 -3 202 -16 240 -17 51 -50 88 -91 104 -39 15 -115 10 -153 -10z"/>
<path d="M8857 3668 c-56 -27 -102 -87 -112 -148 -5 -31 -1 -52 19 -96 23 -49
24 -59 12 -73 -21 -24 -46 -78 -46 -98 0 -10 14 -36 31 -58 23 -31 27 -42 17
-50 -114 -89 -75 -214 77 -247 60 -13 173 -9 232 8 160 45 207 213 81 284 -32
18 -64 24 -164 30 -130 7 -154 16 -154 55 0 44 9 54 43 47 43 -9 125 -8 160 1
45 12 115 84 128 129 10 41 5 93 -13 115 -12 15 0 20 47 25 28 3 30 6 33 46
l3 42 -69 0 c-38 0 -116 2 -173 5 -93 5 -109 3 -152 -17z m152 -69 c87 -30 73
-184 -19 -202 -34 -7 -93 8 -110 28 -6 8 -14 36 -16 62 -9 89 59 142 145 112z
m61 -482 c31 -10 35 -17 38 -49 6 -66 -70 -107 -173 -93 -72 9 -95 27 -95 75
0 59 33 80 124 79 39 0 87 -5 106 -12z"/>
<path d="M10095 3675 c-27 -8 -53 -14 -57 -15 -12 0 -10 -90 2 -90 5 0 35 7
67 15 67 17 123 19 175 5 39 -11 58 -44 58 -102 l0 -29 -62 2 c-81 2 -132 -8
-190 -37 -102 -51 -128 -137 -74 -243 20 -38 87 -72 145 -73 43 0 125 33 159
65 20 18 24 19 32 7 5 -8 10 -25 10 -37 0 -21 5 -23 50 -23 l50 0 0 221 c0
209 -1 223 -22 260 -34 61 -100 89 -207 88 -48 0 -108 -7 -136 -14z m245 -342
c-1 -45 -12 -61 -64 -97 -74 -50 -156 -27 -156 43 0 68 34 90 143 91 l77 0 0
-37z"/>
<path d="M5604 3666 c-3 -8 -4 -29 -2 -48 l3 -33 133 -3 132 -3 0 -248 c0
-270 -5 -303 -51 -326 -39 -21 -129 -19 -189 4 l-50 19 0 -46 c0 -26 4 -52 8
-59 13 -20 100 -36 176 -31 117 8 184 53 223 153 8 20 12 126 12 333 l1 302
-195 0 c-159 0 -197 -3 -201 -14z"/>
<path d="M2830 3332 c0 -64 -25 -157 -57 -212 -15 -25 -51 -68 -81 -96 l-54
-52 23 -43 c12 -24 68 -130 125 -236 117 -215 112 -195 97 -415 l-6 -98 -234
0 c-231 0 -233 0 -233 21 0 12 9 76 20 143 56 346 90 559 90 571 0 10 -24 11
-110 7 -93 -4 -125 -1 -205 18 -53 13 -98 21 -101 18 -2 -3 -34 -196 -69 -429
-35 -233 -82 -545 -105 -694 -103 -679 -103 -678 -91 -720 25 -91 88 -145 170
-145 56 0 150 37 187 74 37 37 30 6 118 561 l61 390 239 3 c132 1 243 -1 247
-5 4 -5 2 -111 -5 -238 -14 -249 -12 -271 37 -324 30 -32 94 -61 137 -61 72 0
175 64 206 127 27 56 89 1064 68 1104 -7 15 -95 163 -195 330 -99 167 -199
337 -221 377 -22 39 -44 72 -49 72 -5 0 -9 -22 -9 -48z"/>
<path d="M3755 2804 c-46 -24 -63 -43 -81 -89 -21 -55 -7 -101 41 -144 63 -55
133 -50 195 14 26 26 34 45 38 83 4 44 1 52 -29 87 -33 38 -82 65 -116 65 -10
0 -31 -7 -48 -16z"/>
<path d="M8999 2797 c-19 -12 -44 -43 -57 -69 -20 -40 -22 -51 -12 -86 21 -80
122 -132 188 -98 16 8 43 31 61 51 25 29 31 45 31 80 0 35 -6 51 -31 80 -60
68 -120 82 -180 42z"/>
<path d="M11860 2695 l0 -85 135 0 135 0 0 -485 0 -485 -150 0 -150 0 0 -85 0
-85 395 0 395 0 0 85 0 84 -132 3 -133 3 -3 568 -2 567 -245 0 -245 0 0 -85z"/>
<path d="M1052 2678 c-107 -199 -132 -256 -119 -266 33 -28 901 -472 907 -465
13 14 73 390 66 409 -6 15 -10 13 -26 -14 -22 -36 -28 -38 -56 -18 -17 13 -18
18 -7 47 7 18 12 34 10 35 -11 9 -387 194 -395 194 -7 0 -12 -4 -12 -9 0 -5
-7 -16 -15 -25 -13 -12 -21 -13 -40 -4 -26 12 -32 37 -14 55 18 18 5 28 -104
86 -153 81 -137 83 -195 -25z"/>
<path d="M5790 2681 l-95 -26 -3 -123 -3 -122 -129 0 -130 0 0 -85 0 -85 130
0 130 0 0 -275 c0 -298 5 -334 57 -404 82 -108 267 -139 511 -86 21 5 22 10
22 91 0 77 -2 85 -17 80 -100 -30 -235 -31 -290 -3 -54 28 -58 48 -61 334 l-3
263 183 2 183 3 3 83 3 82 -186 0 -185 0 0 150 c0 114 -3 150 -12 149 -7 0
-56 -13 -108 -28z"/>
<path d="M4835 2429 c-142 -11 -251 -58 -310 -135 -59 -77 -69 -146 -35 -237
34 -91 85 -126 280 -190 74 -25 148 -52 164 -60 75 -40 73 -133 -2 -171 -63
-32 -219 -27 -358 10 -116 32 -104 39 -104 -64 0 -50 4 -93 9 -97 19 -11 229
-36 307 -36 99 1 219 23 274 51 134 68 194 192 156 322 -27 95 -105 149 -296
208 -171 53 -210 79 -210 142 0 53 32 84 95 94 63 9 215 -2 285 -20 30 -8 58
-12 62 -10 7 5 12 163 6 164 -2 1 -55 8 -118 18 -82 12 -141 15 -205 11z"/>
<path d="M11014 2419 c-55 -10 -123 -25 -152 -34 l-53 -16 3 -82 c2 -67 6 -81
18 -78 8 2 51 15 95 28 108 33 271 38 328 9 54 -27 70 -55 73 -137 l3 -69
-113 0 c-62 0 -139 -5 -171 -11 -123 -23 -235 -95 -282 -181 -28 -52 -25 -189
6 -247 27 -51 70 -94 126 -124 34 -18 56 -22 140 -21 115 1 172 20 262 93 29
22 55 41 57 41 3 0 6 -26 8 -57 l3 -58 93 -3 93 -3 -3 368 c-3 400 -3 399 -63
477 -28 36 -119 89 -175 101 -88 19 -199 20 -296 4z m315 -594 c2 -63 1 -65
-40 -109 -78 -86 -203 -119 -274 -72 -48 32 -60 116 -25 174 32 52 90 69 236
71 l101 1 2 -65z"/>
<path d="M6833 2415 c-215 -58 -333 -229 -333 -482 0 -170 38 -279 127 -364
138 -133 365 -159 547 -61 142 76 228 243 226 437 -1 169 -34 268 -118 357
-102 109 -288 156 -449 113z m222 -195 c80 -39 116 -121 116 -269 0 -164 -47
-267 -138 -302 -46 -17 -135 -10 -189 15 -44 20 -55 32 -78 79 -37 74 -50 178
-36 270 24 159 89 227 219 227 44 0 78 -6 106 -20z"/>
<path d="M8044 2412 c-54 -19 -117 -64 -158 -112 -14 -17 -27 -30 -30 -30 -3
0 -6 30 -8 68 l-3 67 -97 3 -98 3 0 -471 0 -470 110 0 110 0 0 298 0 297 33
46 c52 73 120 127 171 134 83 13 134 -34 145 -132 l6 -58 108 -3 107 -3 0 53
c0 134 -52 231 -161 301 -43 28 -169 33 -235 9z"/>
<path d="M10138 2419 c-236 -25 -387 -175 -424 -424 -10 -62 -10 -65 0 -144
20 -170 119 -307 261 -360 125 -47 321 -48 443 -3 l47 18 3 92 c1 51 -1 92 -5
92 -4 0 -37 -10 -73 -21 -79 -25 -217 -31 -274 -10 -49 17 -112 73 -137 123
-26 51 -36 137 -26 222 9 80 24 113 77 166 70 70 179 87 325 50 44 -12 87 -22
95 -23 12 -2 16 15 18 92 1 52 -1 98 -5 102 -20 20 -227 38 -325 28z"/>
<path d="M3440 2325 l0 -85 135 0 135 0 0 -300 0 -299 -147 -3 -148 -3 -3 -83
-3 -82 398 2 398 3 3 60 c6 110 12 105 -143 105 l-135 0 0 385 0 385 -245 0
-245 0 0 -85z"/>
<path d="M8702 2328 l3 -83 133 -3 132 -3 0 -299 0 -300 -150 0 -150 0 0 -85
0 -85 398 2 397 3 0 80 0 80 -137 3 -138 3 0 384 0 385 -245 0 -246 0 3 -82z"/>
<path d="M12076 1291 c-21 -23 -14 -56 13 -71 24 -12 61 14 61 44 0 45 -43 61
-74 27z"/>
<path d="M11246 1238 c-9 -12 -16 -35 -16 -50 0 -27 -2 -28 -45 -28 -32 0 -47
-5 -51 -15 -10 -25 16 -45 57 -45 l39 0 0 -102 c0 -116 9 -141 59 -175 43 -29
120 -32 144 -5 30 33 21 42 -41 42 -32 0 -63 5 -70 12 -8 8 -12 49 -12 120 l0
108 64 0 c68 0 81 7 71 40 -5 17 -15 20 -70 20 l-64 0 -3 48 c-3 39 -6 47 -25
50 -13 2 -27 -5 -37 -20z"/>
<path d="M11703 1141 l-51 -28 -11 23 c-11 24 -26 29 -55 18 -14 -5 -16 -31
-16 -181 l0 -174 38 3 37 3 5 122 c5 112 7 124 30 148 20 21 32 25 64 23 36
-3 41 -6 48 -35 7 -28 13 -33 38 -33 39 0 43 11 24 60 -12 29 -27 46 -55 60
-21 11 -40 20 -41 20 -2 0 -26 -13 -55 -29z"/>
<path d="M12488 1150 c-20 -11 -40 -24 -43 -30 -11 -17 -23 -11 -29 15 -7 27
-34 33 -54 13 -9 -9 -12 -76 -12 -238 0 -238 2 -250 46 -250 27 0 34 17 34 86
l0 54 48 0 c109 0 187 80 186 190 0 125 -90 206 -176 160z m76 -72 c30 -47 25
-160 -9 -194 -21 -21 -33 -25 -73 -22 l-47 3 -3 88 c-3 86 -2 88 27 117 37 37
84 41 105 8z"/>
<path d="M11975 1150 c-3 -5 -3 -19 0 -30 5 -16 15 -20 51 -20 l44 0 0 -119 0
-120 -52 -3 c-45 -3 -53 -6 -53 -23 0 -19 8 -20 131 -23 106 -2 133 0 143 12
20 23 4 36 -44 36 l-44 0 -3 148 -3 147 -82 3 c-49 2 -84 -1 -88 -8z"/>
</g>
</svg>
