<svg version="1.1" id="Layer_1" xmlns="http://www.w3.org/2000/svg" xmlns:xlink="http://www.w3.org/1999/xlink" x="0px" y="0px" viewBox="0 0 500 500" style="width: 166px;" xml:space="preserve" data-imageid="travel-planning-53" imageName="Travel Planning" class="illustrations_image">
<style type="text/css">
	.st0_travel-planning-53{fill:#FFFFFF;}
	.st1_travel-planning-53{fill:#093F68;}
	.st2_travel-planning-53{fill:#DFEAEF;}
	.st3_travel-planning-53{fill:#68E1FD;}
	.st4_travel-planning-53{fill:#FFC9B0;}
	.st5_travel-planning-53{fill:#F56132;}
	.st6_travel-planning-53{fill:#FFBC0E;}
	.st7_travel-planning-53{fill:#725858;}
	.st8_travel-planning-53{fill:#70CC40;}
</style>
<g id="map_travel-planning-53">
	<path class="st0_travel-planning-53" d="M63.9,101.5h390.2c14,0,25.3,11.3,25.3,25.2c0,0,0,0,0,0.1v221.9c0,5.9-4.8,10.7-10.7,10.7c0,0,0,0,0,0H49.2&#10;&#9;&#9;c-5.9,0-10.7-4.8-10.7-10.7c0,0,0,0,0,0V126.8C38.6,112.8,49.9,101.5,63.9,101.5z"/>
	<path class="st1_travel-planning-53" d="M479.5,361.3H38.5c-1,0-1.9-0.8-1.9-1.8c0,0,0,0,0,0v-231c0-15.9,12.9-28.7,28.7-28.7h387.2&#10;&#9;&#9;c15.9,0,28.7,12.9,28.7,28.7v0v231c0.1,1-0.6,1.8-1.6,1.9C479.6,361.3,479.5,361.3,479.5,361.3z M40.5,357.5h437.1V128.4&#10;&#9;&#9;c0-13.8-11.2-25-25-25l0,0H65.4c-13.8,0-25,11.2-25,25l0,0L40.5,357.5L40.5,357.5z"/>
	<path class="st2_travel-planning-53" d="M176.4,338c-1.4-0.1-2.8-0.6-3.8-1.6l-6.9-4.8c-2.1-1.3-4-3.1-5.4-5.2c-1.1-2.1-1.6-4.4-1.7-6.8l-2.8-30.5&#10;&#9;&#9;c0.2-2.2-1-4.3-3-5.2l-0.4-0.3c-4-2.7-7.3-6.3-9.9-10.4c-1.2-1.7-2-3.7-2.2-5.8c0-2.2,0.6-4.5,1.7-6.4c0.2-0.5,0.5-1.1,0.7-1.7&#10;&#9;&#9;c0.7-2.1,1.2-4.2,1.6-6.4c0.3-2.1,0.8-4.2,1.4-6.2c1.4-4.4,5.2-9.6,10.9-9.6c3.2,0.1,5.9,1.7,8.4,3.3c2,1.2,3.7,2.4,5.7,2.7&#10;&#9;&#9;c0.6,0.1,1.2,0.1,1.9,0.1c0.9,0,1.8,0,2.7,0.2c4.2,0.8,6.7,4.2,8.9,7.2c0.7,1,1.5,2,2.4,3c2.7,2.8,6.4,4.5,10.3,4.7l0,0&#10;&#9;&#9;c5,0.3,8.2,2.4,8.7,5.6c0.4,2.4-0.8,4.2-2,5.9c-0.7,0.9-1.2,2-1.4,3.1c0.1,0.6,0.2,1.2,0.4,1.8c0.3,0.8,0.5,1.6,0.6,2.4&#10;&#9;&#9;c0.4,3.8-2.5,6.7-4.8,8.9c-7,6.8-11.9,15.1-16.4,23.1c-1.3,2.1-2.3,4.4-3.1,6.7c-1.2,4-1.1,8.3,0.5,12.1l0.3,0.6&#10;&#9;&#9;c0.5,1.2,0.9,2.4,1,3.7c0.2,2.3-1.2,4.5-3.4,5.2C177,337.8,176.7,337.9,176.4,338z M156.8,241.2L156.8,241.2c-3.4,0-6.1,3.5-7.3,7&#10;&#9;&#9;c-0.6,1.9-1,3.8-1.3,5.7c-0.4,2.4-1,4.8-1.8,7.2c-0.2,0.6-0.5,1.3-0.8,1.9c-0.8,1.4-1.3,3-1.3,4.7c0.2,1.4,0.7,2.8,1.6,4&#10;&#9;&#9;c2.3,3.6,5.3,6.8,8.8,9.2l0.4,0.2c3,1.5,4.7,4.7,4.6,8l2.8,30.4c0,1.8,0.4,3.6,1.2,5.3c1.2,1.6,2.6,2.9,4.2,3.9l6.9,4.8&#10;&#9;&#9;c0.4,0.2,1.4,0.9,1.8,0.8c0.2,0,0.5-0.6,0.5-1.2c-0.1-0.9-0.4-1.7-0.8-2.5l-0.3-0.7c-1.9-4.7-2.1-9.8-0.6-14.6&#10;&#9;&#9;c0.9-2.6,2.1-5.1,3.4-7.5c4.6-8.2,9.9-16.8,17-24c1.9-1.9,3.9-3.8,3.7-5.9c-0.1-0.5-0.2-1.1-0.4-1.6c-0.4-0.9-0.6-2-0.6-3&#10;&#9;&#9;c0.1-1.9,0.8-3.7,2.1-5.2c0.8-1.2,1.4-2.3,1.4-3.2c-0.2-1.5-2.8-2.3-5.2-2.4l0,0c-4.9-0.2-9.5-2.3-12.8-5.9c-1-1.1-1.9-2.2-2.7-3.4&#10;&#9;&#9;c-2-2.7-3.7-5.2-6.5-5.7c-0.7-0.1-1.4-0.1-2.1-0.1c-0.8,0-1.5,0-2.3-0.1c-2.8-0.4-5.1-1.9-7.3-3.2S158.8,241.2,156.8,241.2&#10;&#9;&#9;L156.8,241.2z"/>
	<path class="st2_travel-planning-53" d="M143.7,243.9c-2.6,0-5.5-2.3-7.6-3.9c-0.4-0.3-0.6-0.5-0.9-0.7c-3.1-2.2-6.6-3.8-10.3-4.8l-0.7-0.2&#10;&#9;&#9;c-3.4-0.5-6.5-2.6-8.2-5.6l-10-13.9c-4.9-6.8-9.6-14.8-6.4-22.6c1-2.2,2.3-4.3,3.8-6.1c1.9-2.5,3.7-4.9,3.6-7.6&#10;&#9;&#9;c-0.1-1.6-0.8-3.1-2.1-4.1c-2-1.7-4.6-2.6-7.3-2.4c-4.9,0.4-9.2,3.5-13.2,6.3c-1.1,0.9-2.4,1.4-3.8,1.2c-1.3-0.2-2.3-1-2.9-2.2&#10;&#9;&#9;C76,174,77.2,170,81.3,166c3.4-3.4,7.1-6.6,11.1-9.4c3.2-2.3,7.1-4.8,11.5-5.8c3.5-0.6,7-0.6,10.5-0.1c5.4,0.6,10.8,1.6,16.1,2.9&#10;&#9;&#9;l3.3,0.9c3.6,1.1,7.3,1.9,11.1,2.4c3.7,0.4,8.9,0.1,13.1-2.9l0.3-0.3c1.6-1.1,3.7-2.8,6.2-1.9c0.9,0.4,1.8,1.1,2.4,1.9&#10;&#9;&#9;c1,1.1,3.7,4,2.5,7.3c-0.7,1.5-2,2.7-3.5,3.4l-8.1,4.7c-1.4,0.8-2.8,1.7-3.2,2.8c-0.2,0.7-0.2,1.4,0.1,2.1c0.5,1,1.3,1.7,2.3,2.1&#10;&#9;&#9;c2.2,0.5,4.6-0.1,6.3-1.6c1.7-1.4,3.3-3,4.6-4.8l0.9-1.1c2.5-2.9,5.3-3.8,7.6-2.6c1,0.7,1.8,1.7,2.3,2.8c0.2,0.5,0.5,0.9,0.8,1.2&#10;&#9;&#9;c0.4,0.3,1.1,0.1,2.4-0.1c1.3-0.4,2.7-0.5,4.1-0.3c3.6,0.8,5.3,4.7,4.5,10.4c-0.1,2-0.8,3.9-2.1,5.5c-1.9,2-4.4,2.1-6.5,2.2&#10;&#9;&#9;c-1.4-0.1-2.7,0.2-3.9,0.8c-0.9,0.8-1.6,1.8-2,2.9c-0.5,1.1-1.1,2.1-1.8,3c-2,2.5-4.9,3.5-7.5,4.5s-4.8,1.8-5.9,3.5&#10;&#9;&#9;c-0.5,0.8-0.8,1.6-1,2.5c-0.4,1.5-1.1,2.9-2.1,4.1c-0.9,1-2.1,1.9-3.3,2.5c-1,0.5-1.8,1.1-2.5,2c-0.3,0.6-0.5,1.2-0.7,1.9&#10;&#9;&#9;c-0.5,1.8-1.5,4.7-4.5,4.6c-1.3-0.1-2.6-0.8-3.4-1.9l-1.9-2.5c-1.1-1.8-2.2-3.2-3.6-3.5c-1.5-0.1-2.9,0.6-3.7,1.9&#10;&#9;&#9;c-0.9,1.7-1.5,3.5-1.7,5.4c-0.3,2.5,0.1,4.1,1,5s2.2,0.6,3.8,0.6c1.5-0.1,2.9,0.1,4.4,0.4c3.2,1.2,5.5,4.1,6,7.5l0,0&#10;&#9;&#9;c0.1,0.3,1.6,8.7-2.3,10.6C144.7,243.7,144.2,243.9,143.7,243.9z M98.5,168.1c3.3,0,6.5,1.2,9,3.3c2,1.7,3.2,4.2,3.4,6.9&#10;&#9;&#9;c0.1,4-2.2,7-4.4,9.9c-1.3,1.6-2.4,3.3-3.3,5.2c-2.4,6,1.5,12.6,6,19l10,13.9c0.7,1.2,1.7,2.3,2.9,3.1c1,0.5,2,0.8,3.1,1l0.7,0.2&#10;&#9;&#9;c4.2,1,8.1,2.9,11.6,5.4c0.3,0.2,0.6,0.5,1,0.8c3.5,2.8,4.8,3.2,5.3,3.1c0.5-0.5,0.6-4,0.2-6.4c-0.3-1.7-1.4-3.9-3.4-4.6&#10;&#9;&#9;c-1.1-0.2-2.1-0.3-3.2-0.2c-2,0-4.2,0-6.2-1.4c-2.1-1.7-2.9-4.4-2.5-8.4c0.1-2.6,0.9-5.1,2.3-7.2c1.6-2.6,4.7-3.9,7.7-3.4&#10;&#9;&#9;c2.9,0.6,4.6,3,6,5.2l1.6,2.2c0.2,0.2,0.4,0.5,0.6,0.6c0.3-0.6,0.5-1.2,0.7-1.9c0.2-0.9,0.5-1.7,0.9-2.5c1-1.5,2.3-2.7,3.9-3.4&#10;&#9;&#9;c0.9-0.4,1.6-1,2.3-1.7c0.6-0.9,1.1-1.9,1.2-2.9c0.3-1.1,0.8-2.3,1.4-3.3c1.9-2.9,5-4,7.8-5.1c2.3-0.8,4.6-1.6,5.8-3.2&#10;&#9;&#9;c0.5-0.7,0.9-1.6,1.3-2.3c0.6-1.8,1.8-3.3,3.2-4.5c1.8-1.1,3.8-1.6,5.9-1.4c1.8-0.1,3.2-0.2,4.1-1c0.6-1,1-2.1,1-3.3&#10;&#9;&#9;c0.3-2.1,0.3-5.8-1.6-6.2c-0.8-0.1-1.6,0-2.4,0.3c-1.7,0.4-3.6,0.8-5.5-0.4c-0.9-0.7-1.6-1.7-2-2.7c-0.2-0.5-0.5-0.9-0.8-1.2&#10;&#9;&#9;c-0.4-0.2-1.6,0.4-2.7,1.8l-0.9,1.1c-1.5,2-3.3,3.8-5.3,5.4c-2.7,2.2-6.3,3-9.8,2.2c-2.1-0.7-3.7-2.2-4.7-4.1&#10;&#9;&#9;c-0.8-1.6-0.9-3.4-0.2-5.1c0.9-2.4,3.3-3.7,4.9-4.7l8.1-4.7c0.7-0.4,1.4-0.9,1.9-1.6c0.3-0.6-0.3-1.8-1.7-3.3&#10;&#9;&#9;c-0.3-0.3-0.6-0.6-0.9-0.8c-0.6-0.2-1.8,0.6-2.6,1.3l-0.4,0.3c-5.1,3.7-11.3,4-15.7,3.6c-4-0.5-7.9-1.4-11.7-2.5l-3.2-0.8&#10;&#9;&#9;c-5.1-1.3-10.3-2.3-15.6-2.9c-3.1-0.5-6.2-0.5-9.2,0c-3.7,0.8-7.2,3-10.1,5.1c-3.8,2.7-7.3,5.7-10.6,9c-1,1-4.2,4.5-2.9,6.7&#10;&#9;&#9;l0.3,0.3l0.9-0.6c4.4-3.1,9.1-6.5,15-7C97.6,168.2,98,168.1,98.5,168.1z"/>
	<path class="st2_travel-planning-53" d="M158.1,233.5c-0.2,0-0.4,0-0.6-0.1c-0.9-0.2-1.7-0.6-2.4-1.1l-5.4-3.7c-0.1-0.1-0.3-0.2-0.4-0.3&#10;&#9;&#9;c-0.5-0.6-0.7-1.4-0.6-2.2c0.1-0.9,0.6-1.7,1.4-2.2c0.9-0.5,2-0.7,3-0.5c3.6,0.3,7,2.1,9.3,4.9c0.7,0.7,0.6,1.9-0.1,2.6&#10;&#9;&#9;c0,0-0.1,0.1-0.1,0.1l0,0c-0.1,0.1-0.2,0.2-0.3,0.2c-0.2,0.4-0.5,0.8-0.8,1.1C160.3,233,159.2,233.5,158.1,233.5z M154.8,227.5&#10;&#9;&#9;l2.5,1.7c0.3,0.2,0.6,0.4,0.9,0.5c0.1-0.1,0.2-0.1,0.2-0.2C157.3,228.6,156.1,227.9,154.8,227.5L154.8,227.5z"/>
	<path class="st2_travel-planning-53" d="M200.5,173.4c-1.5,0.1-3-0.6-4-1.8c-0.6-0.9-1-1.9-0.9-3c0-1.9,0.3-3.8,0.9-5.6c0.7-2.6,1.1-4.2,0.3-5.6&#10;&#9;&#9;c-0.7-0.8-1.7-1.5-2.7-1.9c-0.4-0.2-0.9-0.5-1.4-0.7c-2.2-1.2-4.4-3.8-3.4-6.8c1-3.5,5.3-3.8,6.8-3.9l24.4-2.1&#10;&#9;&#9;c3.7-0.3,8.8-0.8,12.1,1.6c1.3,0.8,2.2,2.1,2.4,3.5c0.3,2.2-1.1,3.8-2.6,5.5c-0.7,0.7-1.3,1.5-1.8,2.4c-0.2,0.5-0.5,1-0.7,1.6&#10;&#9;&#9;c-1.4,2.8-2.8,5.9-6.1,7c-1.2,0.4-2.5,0.5-3.8,0.4c-0.6,0-1.2,0-1.8,0.1c-2.6,0.3-5,2.2-7.4,4.1c-2.7,2.2-5.6,4.5-9.2,5&#10;&#9;&#9;C201.3,173.4,200.9,173.4,200.5,173.4z M225.1,145.7c-1.6,0-3,0.1-4.2,0.2l-24.4,2.1c-2.7,0.2-3.3,0.9-3.4,1.2&#10;&#9;&#9;c-0.2,0.6,0.6,1.7,1.8,2.4c0.4,0.2,0.7,0.4,1.1,0.6c1.6,0.7,3,1.8,4.1,3.1c2,2.8,1,6,0.2,8.7c-0.5,1.4-0.8,2.9-0.8,4.4&#10;&#9;&#9;c0,0.3,0,0.6,0.2,0.8c0.4,0.3,1,0.4,1.4,0.2c2.6-0.3,4.9-2.2,7.3-4c2.7-2.2,5.6-4.6,9.3-5c0.7-0.1,1.5-0.1,2.2-0.1&#10;&#9;&#9;c0.9,0.1,1.7,0,2.6-0.2c1.9-0.6,2.9-2.8,3.9-5.1c0.3-0.6,0.5-1.1,0.8-1.8l0,0c0.6-1.1,1.4-2.2,2.3-3.1c0.7-0.8,1.8-2.1,1.7-2.6&#10;&#9;&#9;c0-0.1-0.2-0.4-0.8-0.8C229.2,145.9,227.1,145.7,225.1,145.7z"/>
	<path class="st2_travel-planning-53" d="M278.9,312.2c-1,0-2-0.1-3-0.4c-4.7-1.3-8.3-5.1-9.3-9.9c-0.2-0.8-0.3-1.6-0.3-2.4c0-1.1-0.3-2.3-0.7-3.3&#10;&#9;&#9;c-0.2-0.4-0.5-0.9-0.8-1.2c-0.4-0.5-0.8-1.1-1.1-1.8c-0.6-1.4-1-2.9-1.1-4.5l-1.2-9.1c-0.2-1.5-0.5-3.8,0.8-5.8&#10;&#9;&#9;c0.4-0.5,0.8-0.9,1.2-1.2l0.6-0.6c0.8-1-0.2-3.1-1.6-4.5c-0.3-0.3-0.5-0.6-0.8-0.8c-1.8-1.8-3.7-3.7-3.9-6.7c0-0.9,0-1.8,0.2-2.7&#10;&#9;&#9;c0.2-0.7,0.3-1.5,0.1-2.3c-0.3-0.5-1.1-0.7-2.7-0.8c-3.2-0.2-6.4,0-9.6,0.4l-1,0.2c-2.4,0.5-4.8,0.6-7.2,0.2&#10;&#9;&#9;c-6-1.2-9.5-7.5-10.4-13c-0.4-3.2-0.4-6.4-0.2-9.6c0.1-2,0.2-3.9,0.1-5.9v-0.6c-0.5-3.5,0.7-7,3.3-9.3l0,0&#10;&#9;&#9;c10.1-11.4,19.8-15.6,28.4-11.9c2.2,1.2,4.3,2.7,6,4.5c1.2,1.3,2.7,2.5,4.3,3.4c2.4,1.4,3.6,0.7,5.7-0.2c2.1-1.2,4.6-1.7,7-1.2&#10;&#9;&#9;c4.7,0.9,9.2,4,12.6,8.8c2.6,3.8,4.8,7.9,6.5,12.1l0.4,0.9c2.1,4.7,4.7,9.2,8.7,10.5l0.4,0.1c2,0.6,5.2,1.6,5.1,4.8&#10;&#9;&#9;c-0.1,0.9-0.4,1.8-0.9,2.6c-1.8,2.6-3.7,5.1-5.9,7.4c-1,1.1-2.2,2.4-3.2,3.6c-3.4,4.1-5,7.9-4.9,11.4c0,0.9,0.2,1.9,0.3,2.8&#10;&#9;&#9;c1.1,4.4-0.2,9.1-3.4,12.4c-2.4,2.8-3.9,6.1-4.5,9.8c-0.8,3.3-1.8,6.8-4.1,9.6C286.2,310.6,282.6,312.2,278.9,312.2z M252.4,250.3&#10;&#9;&#9;c1,0,2.1,0,3.1,0.1s4.3,0.2,5.7,2.7c0.8,1.6,0.9,3.3,0.4,5c-0.1,0.6-0.2,1.2-0.2,1.9c0.1,1.5,1.5,2.8,2.8,4.2l0.8,0.9&#10;&#9;&#9;c2.5,2.6,3.9,6.5,1.8,9.4c-0.3,0.4-0.7,0.8-1.1,1.1l-0.6,0.6c-0.3,1-0.4,2-0.2,3l1.2,9.1c0.1,1.1,0.3,2.2,0.8,3.2&#10;&#9;&#9;c0.2,0.4,0.5,0.9,0.8,1.2c1.4,1.8,2.2,4.1,2.3,6.4c0,0.7,0.2,1.3,0.3,2c1,4.8,5.8,7.9,10.7,6.9c2-0.4,3.7-1.4,5-3&#10;&#9;&#9;c1.9-2.2,2.6-5.1,3.3-8.2c0.6-4.1,2.4-8,5.2-11.1c2.6-2.4,3.6-6,2.7-9.3c-0.2-1.1-0.3-2.2-0.4-3.3c-0.1-4.5,1.8-9,5.7-13.9&#10;&#9;&#9;c1-1.3,2.1-2.6,3.3-3.7c2.1-2.1,3.9-4.4,5.5-6.8l0.3-0.6c-0.7-0.5-1.5-0.8-2.4-1l-0.4-0.1c-5.6-1.8-8.6-7.1-11.1-12.6l-0.4-1&#10;&#9;&#9;c-1.6-4-3.7-7.9-6.1-11.4c-2.9-3.9-6.6-6.5-10.4-7.4c-1.8-0.4-3,0.2-4.6,0.9c-2.2,1-5,2.4-9.1,0.1c-1.8-1.1-3.6-2.5-5.1-4&#10;&#9;&#9;c-1.4-1.5-3-2.8-4.9-3.7c-8.5-3.8-17.7,3.8-24,11l0,0c-0.9,0.9-1.6,2-2.2,3.2c-0.3,1.1-0.3,2.3-0.2,3.4v0.6c0.1,2.1,0,4.1-0.1,6.2&#10;&#9;&#9;c-0.2,3-0.2,6,0.1,8.9c0.6,4.2,3.2,8.9,7.4,9.9c2,0.3,3.9,0.1,5.9-0.3l1.1-0.2C247.5,250.5,250,250.3,252.4,250.3L252.4,250.3z"/>
	<path class="st2_travel-planning-53" d="M304.9,296.2c-0.4,0-0.8,0-1.1-0.1c-0.8-0.1-1.5-0.5-2-1c-0.3-0.4-0.6-0.9-0.8-1.4c-1.5-3.9-0.6-8.2,2.3-11.2&#10;&#9;&#9;l0.2-0.2l0.4-0.4v-1c0.2-2.4,1.4-4.5,3.2-6c1.3-1,2.9-1.5,4.6-1.1c1.2,0.3,2.3,1,3,2.1c1.6,2.5,0.9,6.2,0.5,7.8&#10;&#9;&#9;c-0.6,2.3-1.6,4.6-2.8,6.6c-0.7,1.5-1.7,2.9-3,4C308.1,295.5,306.5,296.2,304.9,296.2z M304.6,292.5v-0.1c0.9,0.1,1.8-0.2,2.4-0.8&#10;&#9;&#9;c0.9-0.9,1.6-1.9,2.2-3c1.1-1.8,1.9-3.7,2.4-5.7c0.5-2.1,0.5-4,0-4.9c-0.1-0.2-0.3-0.3-0.5-0.4c-0.5-0.1-1.1,0.1-1.5,0.5&#10;&#9;&#9;c-1,0.8-1.6,1.9-1.8,3.1l0,0v0.3c0,0.7-0.1,1.4-0.3,2c-0.3,0.7-0.7,1.3-1.3,1.8l-0.2,0.2C304.1,287.3,303.6,290,304.6,292.5&#10;&#9;&#9;L304.6,292.5z"/>
	<path class="st2_travel-planning-53" d="M382,247c-2.6,0-5.6-1.7-8.6-4.8l-7.5-7.9c-2.4-2.5-5.9-5-8-3.4c-1.4,1-1.4,3.3-1.4,5.8v1.2&#10;&#9;&#9;c0,2.7-1.1,5.2-3.1,7.1c-1.2,0.9-2.7,1.3-4.1,1c-1.3-0.4-2.5-1-3.4-2c-4.9-4.5-8.3-10.5-9.6-17.1c-0.1-0.6-0.2-1.1-0.5-1.7&#10;&#9;&#9;c-0.4-0.2-0.8-0.4-1.2-0.5l-0.3-0.1c-2-0.6-3.9-1.4-5.7-2.5c-1.3-0.7-2.7-1.3-4-1.9c-1.8-0.7-3.8-0.8-5.7-0.3l3.2,2.1&#10;&#9;&#9;c0.5,0.3,0.8,0.8,0.9,1.4c0.7,5.8-3.4,11.1-9.2,11.8c-0.1,0-0.2,0-0.2,0c-2.3,0.3-4.7-0.2-6.8-1.4c-2.7-1.7-4.5-4.4-5.8-6.5&#10;&#9;&#9;l-9.8-15.4c-0.5-1-1.3-1.9-2.2-2.5c-0.5-0.2-0.9-0.4-1.5-0.4c-0.9-0.2-1.7-0.4-2.5-0.8c-1.3-0.8-2.2-2.3-2.3-3.8v-0.4&#10;&#9;&#9;c-4.4-2.2-9.5-2.8-14.3-1.7l-0.8,0.2c-1.8,0.6-3.7,0.8-5.5,0.4c-1.2-0.3-2.3-0.9-3.3-1.6l-0.8-0.4c-4.8-2.6-10.8-2-15,1.4&#10;&#9;&#9;c-0.5,0.4-1.1,0.6-1.7,0.4c-0.6-0.1-1.1-0.5-1.4-1c-2.7-5.5-2.1-10.2,1.4-11.9c0.7-0.3,1.4-0.5,2.1-0.6c0.5-0.1,0.9-0.2,1.4-0.4&#10;&#9;&#9;c0.2-0.2-0.2-1.4-0.4-2c-0.1-0.4-0.3-0.8-0.4-1.2c-0.5-2,0.3-4.1,2-5.2c1.1-0.7,2.5-0.6,3.5,0.2c0.1,0.1,0.2,0.1,0.2,0.2l12.1-3.5&#10;&#9;&#9;c2.4-0.7,4.9-2.1,4.6-3.5c-0.2-0.5-0.7-0.9-1.2-0.9c-0.5,0.1-0.9,0.6-0.9,1.1c0,0.7-0.3,1.3-0.8,1.7c-0.5,0.4-1.3,0.4-1.9,0.1&#10;&#9;&#9;l-9.8-4.5c-0.5-0.2-0.9-0.8-1-1.3c-0.1-0.6,0-1.2,0.4-1.7c3.2-3.6,6.7-6.9,10.6-9.9c3-2.3,10.6-7.1,16.4-2.7&#10;&#9;&#9;c0.6,0.4,1.2,0.9,1.7,1.4c0.4,0.5,0.9,1,1.5,1.4c1,0.5,2.2,0.8,3.3,0.8h0.3c4.1,0.5,8.5,1,12.4,0.3c1.9-0.4,3.7-1.2,5.4-2.2&#10;&#9;&#9;c1.5-0.9,3.1-1.6,4.8-2.2c2.8-0.7,5.6-1,8.5-0.8c3.4,0.1,6.4,0.1,9.6-2c0.9-0.6,1.9-1.4,2.7-2c2.6-2.1,5.3-4.1,9.8-3.8&#10;&#9;&#9;c5,0.3,9.2,3.2,13.4,6.1c1.9,1.4,4,2.7,6.1,3.7c10,4.7,21.1,3.2,32.8,1.6c10.4-1.3,21.2-2.8,31.3,0.3c2.4,0.7,5.7,2.6,6.9,5.5&#10;&#9;&#9;c0.6,1.5,0.6,3.1-0.1,4.6c-0.6,1.2-1.6,2.2-2.7,2.9c-0.3,0.2-0.5,0.4-0.8,0.6c-2.6,2.4-3.1,6.3-1.2,9.3c0.6,0.8,0.4,2-0.5,2.6&#10;&#9;&#9;c0,0,0,0,0,0c-0.3,0.2-0.6,0.3-1,0.3c-6.8,0-12.8-4.5-14.7-11.1c-1.4-0.4-2.8-0.5-4.2-0.3c-1.1,0.3-2.3,1.4-2.1,2.4&#10;&#9;&#9;s1.1,1.6,2.8,2.5s3.7,2.2,4.6,4.5c0.4,1.4,0.4,2.8,0.1,4.1l-3.4,23.3c-0.1,0.7-0.6,1.3-1.2,1.5c-0.6,0.2-1.3,0.1-1.9-0.3&#10;&#9;&#9;c-2.7-2.3-5.1-5-7-8.1c-0.8,2-0.8,4.2,0.1,6.1c0.5,1.3,1.1,2.5,1.9,3.6c1.3,2.1,2.3,4.4,2.9,6.8c0.5,2.8-0.1,5.3-1.9,6.6&#10;&#9;&#9;c-2.1,1.8-4.8,1.4-7,1c-1.6-0.2-3-0.5-3.9,0c-2.2,1.2-0.7,6-0.4,6.9c0.7,2.1,2.9,8.4-1.4,11.5C384.6,246.5,383.3,247.1,382,247z&#10;&#9;&#9; M359.4,226.6c2.8,0,6,1.8,9.2,5.1l7.5,7.9c0.8,0.8,4.9,4.9,7.2,3.2c1.4-0.9,1.4-3.4,0-7.3c-1.9-5.5-1.1-9.6,2.2-11.5&#10;&#9;&#9;c2.1-1.1,4.4-0.8,6.3-0.4s3.1,0.4,3.8-0.2s0.7-2.1,0.6-3.1c-0.5-2-1.4-3.9-2.5-5.7c-0.7-1.4-1.5-2.7-2.1-4.1&#10;&#9;&#9;c-1.8-4.4-1.2-10.1,3-12.2c0.9-0.5,2.1-0.1,2.6,0.8c0,0,0,0,0,0c1.2,2.4,2.8,4.7,4.7,6.6l2.8-19.7c0.2-0.8,0.2-1.6,0-2.4&#10;&#9;&#9;c-0.3-0.9-1.5-1.7-2.9-2.4c-1.9-1-4.1-2.4-4.6-5.1c-0.6-3.3,2.1-6.1,5-6.9c2.4-0.4,4.9-0.2,7.3,0.6c0.7,0.2,1.2,0.7,1.4,1.4&#10;&#9;&#9;c1,4.2,4.1,7.6,8.3,8.8c-0.9-4,0.3-8.1,3.3-10.9c0.3-0.3,0.6-0.6,1-0.8c0.6-0.4,1.1-0.9,1.5-1.6c0.2-0.4,0.2-0.9,0-1.4&#10;&#9;&#9;c-0.5-1.4-2.5-2.7-4.6-3.3c-9.3-2.9-19.7-1.6-29.7-0.2c-11.8,1.6-24,3.2-34.9-2c-2.3-1.2-4.5-2.5-6.6-4c-3.7-2.6-7.6-5.2-11.4-5.4&#10;&#9;&#9;c-3-0.2-4.8,1.1-7.1,3.1c-0.9,0.7-2,1.5-3,2.2c-4.2,2.7-8.1,2.6-11.8,2.5c-2.4-0.2-4.9,0-7.3,0.6c-1.4,0.5-2.8,1.1-4.1,1.9&#10;&#9;&#9;c-2,1.2-4.2,2.1-6.5,2.6c-4.6,0.8-9.1,0.2-13.6-0.3H284c-2.7,0-5.2-1.2-7-3.2l-1.1-1.1c-3.8-2.9-10.1,1.4-11.8,2.7&#10;&#9;&#9;c-3,2.3-5.8,4.8-8.4,7.5l5.3,2.5c1.4-2.4,4.4-3.2,6.8-1.8c1.2,0.7,2,1.8,2.3,3.1c0.7,3.4-2.1,6.4-7.3,8l-12.6,3.6&#10;&#9;&#9;c-0.9,0.2-1.9,0.2-2.7-0.2v0.2c0.1,0.3,0.2,0.7,0.3,1c0.5,1.6,1.2,3.6-0.1,5.5c-0.9,1.1-2.2,1.8-3.5,2c-0.4,0.1-0.8,0.2-1.2,0.4&#10;&#9;&#9;c-1.2,0.6-1.1,2.7-0.5,4.7c5.3-3.2,11.8-3.3,17.2-0.3l0.9,0.5c1.6,1.4,3.9,1.6,5.8,0.7l0.9-0.2c6.4-1.5,13.1-0.4,18.7,3&#10;&#9;&#9;c0.6,0.3,1,1,0.9,1.7c0,0.5-0.2,1-0.6,1.4c0.1,0.1,0.1,0.2,0.3,0.3c0.5,0.2,1,0.4,1.5,0.5c0.8,0.2,1.6,0.5,2.4,0.8&#10;&#9;&#9;c1.5,0.9,2.8,2.3,3.6,3.8l9.8,15.3c1.2,2,2.7,4.1,4.6,5.4c3.3,2,7.5,1,9.5-2.3c0.7-1.1,1-2.3,1-3.6l-4.9-3&#10;&#9;&#9;c-0.5-0.3-0.8-0.8-0.8-1.4c-0.1-0.6,0.1-1.1,0.4-1.6c3-3.6,8.3-3.3,11.9-2.1c1.6,0.6,3.1,1.3,4.6,2.1c1.6,0.9,3.3,1.7,5.1,2.2&#10;&#9;&#9;l0.3,0.1c2.5,0.3,4.4,2.5,4.6,5c1.1,5.8,4.1,11.1,8.5,15.1c0.4,0.5,0.9,0.8,1.5,1c0.3,0.1,0.7,0,0.9-0.3c1.1-1.1,1.6-2.6,1.7-4.1&#10;&#9;&#9;v-1.2c0-2.9,0-6.5,2.8-8.7C356.6,227.1,357.9,226.5,359.4,226.6L359.4,226.6z"/>
	<path class="st2_travel-planning-53" d="M420.3,323.1c-0.3,0-0.7,0-1-0.1c-0.8-0.2-1.4-0.9-1.5-1.8c-0.1-1.9-0.9-3.7-2.3-5.1c-0.2-0.2-0.5-0.4-0.7-0.6&#10;&#9;&#9;c-0.7-0.5-1.4-1.1-1.9-1.9c-0.8-1.1-1.3-2.3-1.7-3.6c-0.5-1.5-0.9-2.6-1.6-2.7c-0.6,0-1.2,0.1-1.8,0.4c-0.4,0.1-0.8,0.3-1.1,0.4&#10;&#9;&#9;c-1.6,0.3-3.3,0.4-5,0.3c-1.5-0.2-3-0.1-4.5,0.4c-0.6,0.3-1.2,0.7-1.8,1.1c-1.8,1.2-4.1,3-6.7,1.5s-2.7-4.9-1.6-7.3&#10;&#9;&#9;c0.3-0.6,0.6-1.1,0.9-1.7c0.5-0.8,0.9-1.7,1.1-2.6c0-0.7,0-1.4-0.2-2.1c-0.1-0.5-0.2-1-0.2-1.6c-0.3-4,1.5-7.8,4.8-10.1&#10;&#9;&#9;c1.5-0.9,3.1-1.6,4.8-2.1c2.1-0.7,3.9-1.4,5-2.7c0.4-0.5,0.7-1.1,0.9-1.8c0.5-1.4,1.4-2.7,2.6-3.6c1.3-0.8,2.8-1.3,4.4-1.5&#10;&#9;&#9;c1,0,1.9-0.3,2.7-0.8c0.4-0.4,0.8-1,0.9-1.5c0.6-1.5,1.7-2.7,3.1-3.4c1.3-0.5,2.7-0.4,3.8,0.3c1.9,1.4,3.2,3.5,3.3,5.9l0,0&#10;&#9;&#9;c0,0.3,0.1,0.6,0.1,1c0.1,1.2,0.2,3.5,1,4c0.3,0.2,0.7,0.2,1,0.1c0.6-0.3,1-0.8,1.1-1.5c0.1-0.5,0.2-1.1,0.3-1.7&#10;&#9;&#9;c0.3-1.8,0.6-3.7,2.3-5.3c0.6-0.5,1.4-0.6,2.1-0.3c3.3,1.5,5.3,5.1,5.8,10.6l0.1,1.2c0.3,3,0.5,5.9,2.2,7.8&#10;&#9;&#9;c0.2,0.3,0.5,0.5,0.7,0.8c1,0.9,1.8,2,2.3,3.2c0.7,2.4-0.4,4.7-1.4,6.1c-2.2,3.3-4.9,6.3-8,8.7c-0.7,0.5-1.4,1-2.1,1.5&#10;&#9;&#9;c-2.1,1.2-4,2.9-5.4,4.9c-0.3,0.5-0.5,1-0.8,1.6c-0.4,0.9-0.9,1.8-1.5,2.6C424,321.9,422.3,322.9,420.3,323.1z M409.3,303.5&#10;&#9;&#9;c0.3,0,0.7,0,1,0.1c2.8,0.6,3.7,3.1,4.4,5.2c0.2,0.9,0.6,1.8,1.1,2.6c0.4,0.4,0.8,0.8,1.2,1.1c0.3,0.2,0.6,0.5,0.9,0.7&#10;&#9;&#9;c1.6,1.5,2.7,3.4,3.2,5.5c0.3-0.2,0.6-0.5,0.8-0.7c0.4-0.6,0.8-1.3,1.1-2c0.3-0.7,0.6-1.4,1-2c1.6-2.6,4-4.4,6.4-6&#10;&#9;&#9;c0.7-0.4,1.4-0.9,2-1.5c2.8-2.1,5.2-4.7,7.2-7.7c0.8-1.4,1.1-2.3,0.9-2.9c-0.3-0.6-0.7-1.1-1.2-1.5l-1-1c-2.5-2.8-2.8-6.6-3.1-10&#10;&#9;&#9;l-0.1-1.1c-0.2-2.2-0.8-4.9-2.3-6.4c-0.2,0.6-0.3,1.2-0.3,1.8c-0.1,0.7-0.2,1.4-0.4,2.1c-0.5,1.8-1.7,3.2-3.4,3.9&#10;&#9;&#9;c-1.5,0.6-3.1,0.4-4.5-0.4c-2.5-1.5-2.7-4.9-2.9-7c0-0.3,0-0.6-0.1-0.9c-0.1-1.2-0.7-2.3-1.6-3c-0.1-0.1-0.3-0.1-0.4,0&#10;&#9;&#9;c-0.4,0.1-0.7,0.8-1,1.6c-0.4,1-1,1.8-1.8,2.6c-1.3,1.1-3,1.8-4.8,1.9c-0.9,0-1.8,0.3-2.6,0.7c-0.6,0.6-1.1,1.4-1.5,2.2&#10;&#9;&#9;c-0.3,0.8-0.8,1.6-1.4,2.4c-1.8,2.4-4.5,3.2-6.8,4c-1.4,0.4-2.7,1-4,1.7c-2.1,1.4-3.3,3.9-3.1,6.4c0,0.4,0.1,0.8,0.2,1.2&#10;&#9;&#9;c0.2,1.1,0.3,2.1,0.2,3.2c-0.2,1.5-0.8,2.8-1.7,4c-0.3,0.5-0.5,0.9-0.7,1.5c-0.5,1-0.4,2.2,0,2.4s1.4-0.4,2.7-1.2&#10;&#9;&#9;c0.7-0.5,1.5-1,2.3-1.5c2-0.8,4.2-1.1,6.3-0.8c1.3,0.1,2.6,0.1,3.8-0.1l0.9-0.3C407.5,303.8,408.4,303.6,409.3,303.5L409.3,303.5z"/>
	<path class="st2_travel-planning-53" d="M429.7,269.9c-1.9,0.1-3.7-0.8-4.8-2.4c-0.4-0.6-0.6-1.3-0.7-2.1c0-0.3-0.1-0.6-0.2-0.8&#10;&#9;&#9;c-0.4-0.5-0.9-0.9-1.5-1.2c-1.1-0.5-2-1.3-2.7-2.2c-0.4-0.6-0.6-1.3-0.5-2.1c0.3-1.3,1.5-2.2,2.8-2.1l3.9-0.2&#10;&#9;&#9;c2.1-0.1,5-0.2,7.4,1.4c1.4,0.9,2.5,2.2,3.2,3.6c1,1.6,1.8,3.4,2.2,5.3c0.1,0.6-0.1,1.3-0.6,1.7c-0.4,0.4-1.1,0.6-1.7,0.5&#10;&#9;&#9;c-1.2-0.2-2.4-0.1-3.6,0.2l-2,0.3C430.4,269.8,430,269.9,429.7,269.9z M425.2,260.6c0.8,0.5,1.5,1.2,2,2.1c0.3,0.6,0.5,1.2,0.6,1.9&#10;&#9;&#9;c0,0.3,0.1,0.7,0.3,0.9c0.6,0.5,1.3,0.7,2.1,0.5l0,0l1.8-0.3l2.1-0.3c-0.3-0.6-0.6-1.1-0.9-1.7c-0.5-0.9-1.2-1.7-2.1-2.4&#10;&#9;&#9;c-1.2-0.8-3.1-0.8-5.2-0.7L425.2,260.6z"/>
	<path class="st2_travel-planning-53" d="M395,262.7c-3.1,0-6.2-1-7.5-3.2c-0.8-1.4-1.5-4,2.8-7.3l1-0.7c0.8-0.4,1.4-1,2-1.6c0.4-0.6,0.8-1.3,1.1-2&#10;&#9;&#9;c0.4-0.9,0.9-1.8,1.5-2.6c1.1-1.3,2.6-2.2,4.4-2.3c1.2,0,2.3,0.5,3.1,1.4c0.5,0.6,0.6,1.4,0.2,2.1c-0.8,1.7-0.9,3.7-0.2,5.4&#10;&#9;&#9;c0.3,0.6,0.4,1.3,0.4,2c-0.1,0.9-0.4,1.7-0.9,2.4c-1,1.4-1.8,2.9-2.3,4.6c-0.2,0.5-0.5,0.9-1,1.1&#10;&#9;&#9;C398.2,262.5,396.6,262.7,395,262.7z M398.8,260l0.7-12.9c-0.2,0.1-0.4,0.3-0.5,0.5c-0.4,0.6-0.7,1.3-1,2c-0.4,1-1,1.9-1.7,2.7&#10;&#9;&#9;c-0.8,0.9-1.7,1.7-2.7,2.4l-0.9,0.6c-1.7,1.3-2,2.1-1.9,2.3c0.6,1,4,1.8,6.6,1c0.6-1.6,1.5-3.2,2.5-4.6c0.1-0.1,0.2-0.3,0.2-0.4&#10;&#9;&#9;c0-0.1-0.1-0.1-0.1-0.2c-0.8-2-1-4.2-0.5-6.3L398.8,260z"/>
	<path class="st2_travel-planning-53" d="M382.5,265.9L382.5,265.9c-4.1-0.2-7.3-7.7-7.6-8.5c-0.9-2.5-2.2-4.8-3.8-6.9c-0.6-0.8-0.5-2,0.3-2.7&#10;&#9;&#9;c0.3-0.2,0.6-0.4,1-0.4c1.4-0.1,4.4-0.3,6,2c0.4,0.5,0.7,1.1,0.8,1.8c0,0.2,0.1,0.4,0.2,0.5l0,0c0.7,1,1.5,1.9,2.5,2.6&#10;&#9;&#9;c2.5,2.3,6,5.3,4.1,9C385,265.5,383.4,265.9,382.5,265.9z M378.5,256.4c1,2.5,2.9,5.2,3.8,5.7c0.1-0.1,0.2-0.3,0.3-0.4&#10;&#9;&#9;c0.5-1.1-1.5-3-3.2-4.5L378.5,256.4z"/>
	<path class="st2_travel-planning-53" d="M397.8,274c-1,0-2-0.1-2.9-0.3c-2.1-0.4-4.1-0.9-6.1-1.7c-1-0.3-1.8-0.9-2.3-1.9c-0.6-1.4-0.1-3.1,1.1-4&#10;&#9;&#9;c0.8-0.5,1.7-0.8,2.7-0.9c3.9-0.4,7.8-0.3,11.6,0.4c0.6,0.1,1.1,0.5,1.4,1c0.6,1,0.7,2.2,0.3,3.3c-0.4,1.5-1.4,2.7-2.8,3.3&#10;&#9;&#9;C399.9,273.8,398.9,274.1,397.8,274z M391.6,269c1.4,0.4,2.7,0.7,4.1,1c1.2,0.4,2.5,0.4,3.6,0c0.3-0.2,0.6-0.5,0.7-0.8&#10;&#9;&#9;C397.3,268.7,394.4,268.7,391.6,269L391.6,269z"/>
	<path class="st2_travel-planning-53" d="M406.6,254.1c-1-0.1-1.9-0.9-1.9-2c0-0.9,0.7-1.7,1.5-1.9c0.4,0,0.8-0.1,1.1-0.2l0.6-0.3&#10;&#9;&#9;c-0.4-0.2-0.8-0.5-1-0.9c-1.3-2.7-2.5-5.5-3.5-8.3c-0.4-0.9-0.5-2-0.2-3c0.7-1.9,2.8-2.9,4.8-2.3c1.3,0.4,2.5,1.3,3.2,2.5&#10;&#9;&#9;c1.9,2.4,2.9,5.4,2.8,8.4c-0.2,3.4-2.4,6.4-5.6,7.6c-0.5,0.2-1.1,0.3-1.7,0.3L406.6,254.1z M407.1,239c0,0.1,0.1,0.3,0.1,0.4&#10;&#9;&#9;c0.8,2.5,1.9,5,3.1,7.4c0.1-0.3,0.1-0.5,0.1-0.8c0-2.1-0.7-4.2-2.1-5.8C408,239.7,407.5,239.3,407.1,239z"/>
	<path class="st2_travel-planning-53" d="M411.2,211.3c-1.6,0.1-3-0.7-3.8-2.1c-0.4-0.7-0.3-1.6,0.3-2.2c1.7-1.7,3-3.1,3.3-4.9c0.1-0.9,0.1-1.7-0.1-2.6&#10;&#9;&#9;c0-0.3-0.1-0.6-0.1-0.9l0,0c-0.2-2.5,0.9-5.8,3.2-7.1c1.6-0.9,3.6-0.6,5,0.6c4,3,0.6,12,0.6,12.1c-1.1,2.9-3.2,5.3-6,6.6&#10;&#9;&#9;C412.8,211.1,412,211.2,411.2,211.3z M414.5,198.2l0.1,0.9c0.2,1.2,0.2,2.4,0.1,3.6c-0.3,1.5-0.9,3-1.9,4.2c1.5-1,2.7-2.4,3.3-4.1&#10;&#9;&#9;c1.1-3,1.5-7,0.6-7.7c-0.5-0.4-0.8-0.3-0.8-0.3C415,195.2,414.4,197,414.5,198.2L414.5,198.2z"/>
	<path class="st2_travel-planning-53" d="M444.6,323.7L444.6,323.7c-0.8,0-1.6-0.4-2.2-1c-0.7-0.9-1-2-0.8-3.1c0.5-3.9,4.1-6.3,6.7-7.8s4.9-2.6,5.6-4.7&#10;&#9;&#9;c0.1-0.2,0.1-0.4,0.2-0.6c0.2-1.6,1.2-2.9,2.7-3.6c1.9-0.7,3.7,0.2,5.1,2.1c0.1,0.2,0.3,0.4,0.4,0.6c0.2,0.5,0.6,0.9,1,1.2&#10;&#9;&#9;c0.9,0.5,1.4,1.5,1,2.5l0,0c-0.2,0.3-0.4,0.6-0.7,0.8c0.1,0.7,0,1.3-0.1,2c-0.6,3.2-2.7,6-5.6,7.5c-2,1-4.1,1.6-6.2,2&#10;&#9;&#9;c-1.8,0.3-3.6,0.9-5.3,1.7C445.8,323.6,445.2,323.7,444.6,323.7z M457.9,307.2c0,0.1-0.1,0.2-0.1,0.3c0,0.3-0.1,0.6-0.2,0.8&#10;&#9;&#9;c-1.1,3.4-4.6,5.3-7.3,6.8c-1.9,1-4.1,2.4-4.8,4.2c1.7-0.7,3.5-1.3,5.4-1.6c1.8-0.3,3.5-0.8,5.2-1.5c1.9-0.9,3.2-2.6,3.6-4.7&#10;&#9;&#9;C460,309.9,459.3,308.2,457.9,307.2L457.9,307.2z"/>
	<path class="st2_travel-planning-53" d="M236.8,182.9c-0.2,0-0.4,0-0.6-0.1c-0.6-0.2-1.1-0.8-1.2-1.5c-0.3-2.1-0.7-5,0.6-7.5c0.9-1.7,2.6-2.8,4.5-3.1&#10;&#9;&#9;c1.5-0.3,2.9,0.3,3.9,1.3c0.3,0.3,0.5,0.7,0.5,1.1l0,0c0.8,1.5,1.5,3,2.1,4.6c0.1,0.4,0.1,0.8,0,1.2c-0.9,2.5-3.5,2.2-4.9,2.1&#10;&#9;&#9;c-0.4,0-0.7-0.1-1.1-0.1c-0.9,0.2-1.8,0.7-2.4,1.5C237.8,182.7,237.3,182.9,236.8,182.9z M240.8,174.5h-0.2&#10;&#9;&#9;c-0.7,0.1-1.3,0.5-1.7,1.1c-0.3,0.6-0.5,1.4-0.4,2.1c0.6-0.2,1.2-0.4,1.9-0.4c0.6,0,1.2,0,1.8,0.1h0.3c-0.3-0.7-0.7-1.5-1.1-2.2&#10;&#9;&#9;c-0.1-0.2-0.2-0.4-0.2-0.6C240.9,174.5,240.9,174.5,240.8,174.5z"/>
	<path class="st2_travel-planning-53" d="M233.4,169.9c-2.8,0-5.3-2.1-5.7-4.9c-0.3-2.8,0.9-5.4,3.2-7c2.3-1.4,4.6-1.6,6.3-0.2c2.1,1.5,2.9,4.6,2.1,7.6&#10;&#9;&#9;l0,0c-0.4,1.6-1.5,2.9-2.9,3.6C235.5,169.6,234.5,169.9,233.4,169.9z M234.4,160.8c-0.5,0-1,0.2-1.4,0.5c-1,0.7-1.6,1.9-1.6,3.2&#10;&#9;&#9;c0.1,0.8,0.7,1.4,1.4,1.6c1.2,0.3,2.4-0.4,2.8-1.6c0.4-1.2,0.2-2.5-0.6-3.5C234.9,160.8,234.7,160.7,234.4,160.8z"/>
	<path class="st3_travel-planning-53 targetColor" d="M428.6,152v227.6c0,4,4,7.3,9.1,7.3h9.2c17.9,0,32.5-11.6,32.5-25.9V128.4c0,14-14.2,23.5-31.6,23.5L428.6,152&#10;&#9;&#9;z" style="fill: rgb(255, 105, 0);"/>
	<path class="st1_travel-planning-53" d="M447,388.8h-9.2c-6,0-11-4.1-11-9.1V152c0-1,0.8-1.9,1.8-1.9c0,0,0,0,0,0h19.2c17,0,29.8-9.3,29.8-21.7&#10;&#9;&#9;c-0.1-1,0.7-1.9,1.7-2c1-0.1,1.9,0.7,2,1.7c0,0.1,0,0.2,0,0.3v232.4C481.4,376.2,466,388.8,447,388.8z M430.6,153.8v225.7&#10;&#9;&#9;c0,3,3.2,5.4,7.2,5.4h9.2c16.9,0,30.6-10.8,30.6-24.1V140.5c-5.5,8.1-16.5,13.3-29.8,13.3L430.6,153.8z"/>
</g>
<g id="lines_travel-planning-53">
	<path class="st1_travel-planning-53" d="M163.5,250.3c-0.2,0-0.5,0-0.7-0.1c-0.9-0.5-1.4-1.5-1-2.5c0.5-1.2,1-2.4,1.6-3.5c0.5-0.9,1.7-1.2,2.6-0.7&#10;&#9;&#9;c0,0,0,0,0,0c0.9,0.4,1.2,1.5,0.8,2.4c-0.6,1.1-1,2.2-1.4,3.3C165,249.9,164.3,250.4,163.5,250.3z"/>
	<path class="st1_travel-planning-53" d="M168.8,239.6c-0.3,0-0.6-0.1-0.9-0.2c-0.9-0.5-1.2-1.6-0.7-2.6c0,0,0,0,0,0l0,0c1.4-2.4,2.8-4.8,4.4-7.1&#10;&#9;&#9;c0.7-0.8,1.9-0.9,2.7-0.3c0.7,0.6,0.9,1.6,0.5,2.4c-1.4,2.2-2.9,4.6-4.2,6.8C170.1,239.2,169.5,239.6,168.8,239.6z M177.8,225.9&#10;&#9;&#9;c-1.1,0-1.9-0.8-2-1.9c0-0.5,0.1-0.9,0.4-1.2c1.6-2.3,3.5-4.4,5.3-6.4c0.7-0.8,1.8-0.9,2.6-0.2c0,0,0.1,0.1,0.1,0.1&#10;&#9;&#9;c0.8,0.7,0.9,1.8,0.2,2.6c0,0,0,0.1-0.1,0.1l0,0c-1.8,2-3.4,4-5.1,6.2C178.9,225.7,178.4,226,177.8,225.9L177.8,225.9z&#10;&#9;&#9; M188.7,213.8c-1,0-1.9-0.8-1.9-1.8c0,0,0,0,0,0c0-0.5,0.2-1.1,0.6-1.4c2.1-2,4.2-3.7,6.3-5.4c0.9-0.6,2.1-0.4,2.7,0.4&#10;&#9;&#9;c0.6,0.8,0.5,1.9-0.3,2.6c-2.1,1.6-4.1,3.3-6.1,5.2C189.7,213.6,189.2,213.7,188.7,213.8L188.7,213.8z M201.8,203.9&#10;&#9;&#9;c-1,0-1.9-0.8-1.9-1.8c0,0,0,0,0,0c0-0.7,0.4-1.3,0.9-1.7c2.4-1.4,4.9-2.8,7.5-3.9c1-0.4,2.1,0.1,2.5,1.1c0,0,0,0,0,0.1&#10;&#9;&#9;c0.4,0.9,0,2-0.9,2.4c-2.4,1.1-4.8,2.3-7.1,3.6C202.5,203.8,202.2,203.9,201.8,203.9L201.8,203.9z M216.6,197.3&#10;&#9;&#9;c-1,0-1.9-0.8-1.9-1.9c0,0,0,0,0,0c0-0.8,0.5-1.6,1.3-1.9c2.7-0.8,5.4-1.4,8.2-1.8c1.1-0.1,2,0.6,2.2,1.7c0.2,1-0.5,2-1.5,2.2&#10;&#9;&#9;c-0.1,0-0.1,0-0.2,0c-2.6,0.4-5.2,0.9-7.7,1.7L216.6,197.3z"/>
	<path class="st1_travel-planning-53" d="M236.6,195h-0.1c-1.2-0.1-2.5-0.1-3.7-0.1c-1,0-1.9-0.8-1.9-1.9l0,0v-0.1c0-1,0.8-1.9,1.8-1.9c0,0,0,0,0,0l0,0&#10;&#9;&#9;c1.2,0,2.6,0,4,0.1c1,0.1,1.8,1,1.8,2.1C238.4,194.2,237.7,194.9,236.6,195L236.6,195z"/>
	<path class="st1_travel-planning-53" d="M270.9,297.8c-0.4,0-0.7-0.1-1-0.3c-2.2-1.5-4.4-2.9-6.3-4.5c-0.8-0.6-1-1.8-0.4-2.6c0.6-0.8,1.6-1,2.5-0.5&#10;&#9;&#9;c0.1,0,0.1,0.1,0.2,0.1c2,1.5,4,2.9,6.1,4.2c0.9,0.6,1.2,1.7,0.6,2.6C272.2,297.4,271.6,297.8,270.9,297.8L270.9,297.8z&#10;&#9;&#9; M258.7,288.7c-0.5,0-0.9-0.2-1.2-0.5c-2-1.8-3.9-3.5-5.6-5.3c-0.7-0.8-0.7-2,0.1-2.7c0.7-0.7,1.9-0.7,2.6,0l0,0&#10;&#9;&#9;c1.7,1.8,3.5,3.4,5.4,5.1c0.8,0.7,0.9,1.9,0.2,2.7C259.8,288.4,259.3,288.7,258.7,288.7z M248.1,277.8c-0.6,0-1.1-0.3-1.4-0.7&#10;&#9;&#9;c-1.7-2.1-3.1-4.1-4.6-6.3c-0.5-0.9-0.2-2,0.7-2.6c0,0,0,0,0,0c0.8-0.5,1.9-0.2,2.5,0.5c1.4,2.1,2.8,4,4.4,6c0.6,0.8,0.5,2-0.3,2.7&#10;&#9;&#9;C249,277.6,248.6,277.7,248.1,277.8L248.1,277.8z M240,265c-0.7,0-1.3-0.4-1.7-1c-1.1-2.4-2.2-4.8-3.1-7.3c-0.3-1,0.3-2,1.2-2.4&#10;&#9;&#9;c0.9-0.3,2,0.2,2.3,1.1c0.8,2.3,1.8,4.6,2.9,6.7c0.5,0.9,0.1,2.1-0.8,2.6c0,0,0,0,0,0C240.6,264.9,240.3,265,240,265L240,265z&#10;&#9;&#9; M234.8,250.7c-0.9,0-1.7-0.6-1.9-1.4c-0.6-2.5-1-5.1-1.2-7.7c-0.1-1,0.6-2,1.7-2.1s2,0.6,2.1,1.7l0,0c0.3,2.4,0.7,4.9,1.2,7.3&#10;&#9;&#9;c0.2,1-0.4,2-1.4,2.3c0,0,0,0,0,0H234.8z M233.2,235.5L233.2,235.5c-1,0-1.9-0.8-1.9-1.8c0,0,0,0,0,0c0-2.6,0.2-5.2,0.4-7.8&#10;&#9;&#9;c0.2-1,1.1-1.7,2.1-1.6c0,0,0,0,0,0c1,0.2,1.6,1,1.6,2c-0.3,2.4-0.4,4.9-0.4,7.4C235,234.7,234.2,235.6,233.2,235.5&#10;&#9;&#9;C233.2,235.6,233.2,235.6,233.2,235.5L233.2,235.5z M234.8,220.4h-0.4c-1-0.2-1.7-1.2-1.5-2.3c0,0,0,0,0,0c0.5-2.6,1.2-5.1,2-7.6&#10;&#9;&#9;c0.2-1,1.2-1.7,2.3-1.4s1.7,1.2,1.4,2.3c0,0.1,0,0.2-0.1,0.2c-0.7,2.4-1.4,4.8-1.9,7.2C236.6,219.7,235.8,220.4,234.8,220.4&#10;&#9;&#9;L234.8,220.4z M239.3,205.9c-0.2,0-0.5,0-0.7-0.1c-0.9-0.5-1.4-1.5-1-2.5c0.9-2.5,2.1-4.9,3.4-7.1c0.5-0.8,1.6-1.1,2.5-0.6&#10;&#9;&#9;c0,0,0.1,0.1,0.1,0.1c0.8,0.5,1.1,1.6,0.6,2.5c-1.2,2.1-2.3,4.4-3.2,6.6C240.7,205.4,240,205.9,239.3,205.9L239.3,205.9z"/>
	<path class="st1_travel-planning-53" d="M294,297.4c-0.2,0-0.4,0-0.5-0.1c-1-0.3-1.6-1.4-1.4-2.4c0.8-2.5,1.8-5,2.9-7.4c0.4-1,1.5-1.4,2.4-1.1&#10;&#9;&#9;c1,0.4,1.4,1.5,1.1,2.4c0,0.1-0.1,0.1-0.1,0.2l0,0c-1.1,2.2-2,4.5-2.7,6.9C295.6,296.8,294.9,297.4,294,297.4z M300.4,283.5&#10;&#9;&#9;c-1,0-1.9-0.8-1.9-1.8c0,0,0,0,0,0c0-0.4,0.1-0.7,0.3-1c1.3-2.2,2.8-4.4,4.5-6.4c0.7-0.8,1.9-1,2.7-0.3s1,1.9,0.3,2.7l0,0&#10;&#9;&#9;c-1.5,2-2.9,4-4.1,6.1C301.8,283.2,301.1,283.5,300.4,283.5L300.4,283.5z M309.8,271.5c-1,0-1.9-0.8-1.9-1.8c0,0,0,0,0,0&#10;&#9;&#9;c0-0.5,0.2-1,0.6-1.4c1.9-1.8,3.9-3.5,6-5.1c0.8-0.6,2-0.4,2.6,0.4c0,0,0,0.1,0.1,0.1c0.6,0.8,0.4,2-0.4,2.6c0,0,0,0,0,0&#10;&#9;&#9;c-2,1.4-3.8,3-5.6,4.7C310.8,271.3,310.3,271.5,309.8,271.5L309.8,271.5z M387.8,268.5c-0.4,0-0.9-0.2-1.2-0.4&#10;&#9;&#9;c-1.9-1.5-3.9-2.8-6-3.9c-1-0.4-1.4-1.6-1-2.5c0.4-1,1.6-1.4,2.5-1c0.1,0,0.2,0.1,0.2,0.1l0,0c2.4,1.2,4.6,2.7,6.7,4.4&#10;&#9;&#9;c0.8,0.7,0.9,1.8,0.3,2.6c0,0,0,0-0.1,0.1C388.9,268.2,388.3,268.5,387.8,268.5L387.8,268.5z M322.2,262.7c-1,0-1.9-0.8-1.9-1.9&#10;&#9;&#9;c0,0,0,0,0,0c0-0.7,0.4-1.4,1-1.8c2.4-1.1,4.8-2.1,7.4-2.8c1-0.4,2.1,0,2.6,1c0.4,1,0,2.1-1,2.6c-0.1,0-0.1,0.1-0.2,0.1&#10;&#9;&#9;c-0.1,0-0.2,0.1-0.3,0.1c-2.3,0.7-4.6,1.6-6.7,2.6C322.7,262.7,322.5,262.7,322.2,262.7L322.2,262.7z M374.4,261.5&#10;&#9;&#9;c-0.2,0-0.4,0-0.6-0.1c-2.3-0.8-4.7-1.5-7.1-2c-1-0.2-1.8-1.1-1.6-2.2c0.2-1,1.1-1.8,2.2-1.6c0.1,0,0.2,0,0.3,0.1l0,0&#10;&#9;&#9;c2.6,0.5,5.1,1.2,7.6,2.1c1,0.4,1.5,1.5,1.1,2.5C375.8,260.9,375.2,261.4,374.4,261.5L374.4,261.5z M336.7,258.6&#10;&#9;&#9;c-1.1,0-1.9-0.9-1.9-2c0-0.9,0.7-1.7,1.7-1.8l0,0c2.6-0.3,5.2-0.5,7.7-0.6c1,0,1.9,0.8,1.9,1.9c0,1-0.7,1.8-1.7,1.9&#10;&#9;&#9;c-2.4,0.1-4.9,0.3-7.5,0.6L336.7,258.6z M359.6,258.3h-0.2c-2.4-0.2-4.9-0.4-7.5-0.4c-1,0-1.9-0.9-1.9-1.9c0,0,0-0.1,0-0.1l0,0&#10;&#9;&#9;c0-1,0.8-1.9,1.8-1.9c0,0,0,0,0,0h0.1c2.6,0,5.2,0.2,7.8,0.5c1,0.1,1.8,0.9,1.8,2C361.5,257.5,360.6,258.3,359.6,258.3L359.6,258.3&#10;&#9;&#9;z"/>
</g>
<g id="notes_travel-planning-53">
	<rect x="308.9" y="308.9" class="st0_travel-planning-53" width="64.9" height="60.7"/>
	<path class="st1_travel-planning-53" d="M374,371.4h-65c-1,0-1.9-0.8-1.9-1.8c0,0,0,0,0,0v-60.7c0-1,0.8-1.9,1.9-1.9c0,0,0,0,0,0h65&#10;&#9;&#9;c1,0,1.9,0.8,1.9,1.8c0,0,0,0,0,0v60.7C375.9,370.6,375,371.4,374,371.4C374,371.4,374,371.4,374,371.4z M310.9,367.6h61.2v-56.8&#10;&#9;&#9;h-61.2L310.9,367.6z"/>
	<path class="st2_travel-planning-53" d="M363.2,325.1h-33.5c-1.1,0.1-2-0.7-2.1-1.8c-0.1-1.1,0.7-2,1.8-2.1h33.8c1.1-0.1,2,0.7,2.1,1.8&#10;&#9;&#9;c0.1,1.1-0.7,2-1.8,2.1H363.2z"/>
	<path class="st2_travel-planning-53" d="M363.2,336.3h-8.6c-1.1,0-1.9-0.8-2-1.9c0-1,0.7-1.8,1.7-1.9h8.9c1.1-0.2,2,0.6,2.2,1.6c0.2,1.1-0.6,2-1.6,2.2&#10;&#9;&#9;c-0.1,0-0.2,0-0.2,0H363.2z"/>
	<path class="st2_travel-planning-53" d="M343.9,336.3h-24.2c-1.1-0.1-1.8-1.1-1.7-2.1c0.1-0.9,0.8-1.6,1.7-1.7h24.2c1.1,0,1.9,0.8,2,1.9&#10;&#9;&#9;c0,1-0.7,1.8-1.7,1.9H343.9z"/>
	<path class="st2_travel-planning-53" d="M363.2,347.6h-43.4c-1,0.1-1.9-0.7-2-1.7c-0.1-1,0.7-1.9,1.7-2c0.1,0,0.2,0,0.3,0h43.4c1-0.1,1.9,0.7,2,1.7&#10;&#9;&#9;c0.1,1-0.7,1.9-1.7,2C363.4,347.6,363.3,347.6,363.2,347.6z"/>
	<path class="st2_travel-planning-53" d="M347.8,358.8h-28c-1-0.1-1.8-1-1.8-2.1c0.1-0.9,0.8-1.7,1.8-1.8h28c1,0.1,1.8,1,1.8,2.1&#10;&#9;&#9;C349.5,357.9,348.7,358.7,347.8,358.8z"/>
	<circle class="st3_travel-planning-53 targetColor" cx="341.5" cy="308.9" r="6.2" style="fill: rgb(255, 105, 0);"/>
	<path class="st1_travel-planning-53" d="M341.5,317c-4.5,0-8.1-3.6-8.1-8.1s3.6-8.1,8.1-8.1c4.5,0,8.1,3.6,8.1,8.1l0,0C349.6,313.4,346,317,341.5,317z&#10;&#9;&#9; M341.5,304.7c-2.4,0-4.3,1.9-4.3,4.3c0,2.4,1.9,4.3,4.3,4.3c2.4,0,4.3-1.9,4.3-4.3c0,0,0,0,0,0l0,0&#10;&#9;&#9;C345.8,306.6,343.8,304.6,341.5,304.7L341.5,304.7L341.5,304.7z"/>
	<rect x="326.5" y="127.6" class="st0_travel-planning-53" width="58.6" height="54.7"/>
	<path class="st1_travel-planning-53" d="M385.1,184.2h-58.6c-1,0-1.9-0.8-1.9-1.8c0,0,0,0,0,0l0,0v-54.7c0-1,0.8-1.9,1.8-1.9c0,0,0,0,0,0h58.6&#10;&#9;&#9;c1,0,1.9,0.8,1.9,1.8c0,0,0,0,0,0l0,0v54.7c0,1-0.7,1.8-1.7,1.9C385.2,184.2,385.1,184.2,385.1,184.2z M328.4,180.4h54.9v-50.9&#10;&#9;&#9;h-54.9V180.4z"/>
	<path class="st2_travel-planning-53" d="M375.3,145.8h-34c-1-0.1-1.8-1-1.8-2.1c0.1-0.9,0.8-1.7,1.8-1.8h34c1,0.1,1.8,1,1.8,2.1&#10;&#9;&#9;C377.1,145,376.3,145.8,375.3,145.8C375.3,145.8,375.3,145.8,375.3,145.8z"/>
	<path class="st2_travel-planning-53" d="M375.3,159.3h-15.6c-1-0.1-1.8-1-1.8-2.1c0.1-0.9,0.8-1.7,1.8-1.8h15.6c1.1,0.1,1.8,1,1.8,2.1&#10;&#9;&#9;C377.1,158.5,376.3,159.3,375.3,159.3C375.3,159.3,375.3,159.3,375.3,159.3z"/>
	<path class="st2_travel-planning-53" d="M348.9,159.3h-12.6c-1.1,0-2-0.8-2-1.9c0-1,0.7-1.8,1.7-2h13c1.1,0,1.9,0.8,2,1.9c0,1-0.7,1.8-1.7,1.9H348.9z"/>
	<path class="st2_travel-planning-53" d="M361.5,172.8h-25.3c-1.1,0-2-0.8-2-1.9c0-1,0.7-1.8,1.7-2h25.6c1.1-0.2,2,0.6,2.2,1.6s-0.6,2-1.6,2.2&#10;&#9;&#9;c-0.1,0-0.2,0-0.2,0H361.5z"/>
	<circle class="st3_travel-planning-53 targetColor" cx="355.8" cy="127.6" r="5.6" style="fill: rgb(255, 105, 0);"/>
	<path class="st1_travel-planning-53" d="M355.8,135.1c-4.1,0-7.5-3.3-7.5-7.5s3.3-7.5,7.5-7.5c4.1,0,7.5,3.3,7.5,7.5v0.1&#10;&#9;&#9;C363.2,131.9,359.9,135.1,355.8,135.1z M355.8,123.9c-2,0-3.7,1.6-3.7,3.6c0,2,1.6,3.7,3.6,3.7c2,0,3.7-1.6,3.7-3.6l0,0&#10;&#9;&#9;C359.4,125.7,357.8,124,355.8,123.9L355.8,123.9z"/>
	<rect x="160.4" y="279.6" class="st0_travel-planning-53" width="50" height="46.6"/>
	<path class="st1_travel-planning-53" d="M210.3,328.2h-49.9c-1,0-1.9-0.8-1.9-1.8c0,0,0,0,0,0v-46.6c0-1,0.8-1.9,1.8-1.9c0,0,0,0,0,0h49.9&#10;&#9;&#9;c1,0,1.9,0.8,1.9,1.9c0,0,0,0,0,0l0,0v46.6c0,1-0.7,1.8-1.7,1.9C210.4,328.2,210.3,328.2,210.3,328.2z M162.3,324.3h46.2v-42.7&#10;&#9;&#9;h-46.2L162.3,324.3z"/>
	<path class="st2_travel-planning-53" d="M202,295.5h-28.9c-1.1-0.1-1.8-1-1.8-2.1c0.1-0.9,0.8-1.7,1.8-1.8H202c1.1-0.1,2,0.7,2.1,1.8&#10;&#9;&#9;c0.1,1.1-0.7,2-1.8,2.1l0,0L202,295.5z"/>
	<path class="st2_travel-planning-53" d="M202,306.9h-13.2c-1-0.1-1.8-1-1.8-2.1c0.1-0.9,0.8-1.7,1.8-1.8H202c1.1,0,1.9,0.8,2,1.9c0,1-0.7,1.8-1.7,1.9&#10;&#9;&#9;H202z"/>
	<path class="st2_travel-planning-53" d="M179.5,306.9h-10.8c-1-0.1-1.8-1-1.8-2.1c0.1-0.9,0.8-1.7,1.8-1.8h10.8c1.1-0.2,2,0.6,2.2,1.6&#10;&#9;&#9;c0.2,1.1-0.6,2-1.6,2.2c-0.1,0-0.2,0-0.2,0H179.5z"/>
	<path class="st2_travel-planning-53" d="M190.3,318.4h-21.6c-1,0-1.9-0.8-1.9-1.9c0-1,0.8-1.9,1.9-1.9h21.6c1,0,1.9,0.8,1.9,1.9&#10;&#9;&#9;C192.1,317.6,191.3,318.4,190.3,318.4z"/>
	<circle class="st3_travel-planning-53 targetColor" cx="185.4" cy="279.6" r="4.8" style="fill: rgb(255, 105, 0);"/>
	<path class="st1_travel-planning-53" d="M185.4,286.3c-3.7,0-6.6-3-6.6-6.6c0-3.7,3-6.6,6.6-6.6c3.7,0,6.6,3,6.6,6.6l0,0&#10;&#9;&#9;C192,283.3,189.1,286.3,185.4,286.3C185.4,286.3,185.4,286.3,185.4,286.3z M185.4,276.8c-1.6,0-2.9,1.3-2.9,2.9c0,0,0,0,0,0&#10;&#9;&#9;c0.1,1.6,1.5,2.8,3.1,2.7c1.5-0.1,2.6-1.3,2.7-2.7C188.3,278.2,187,276.9,185.4,276.8z"/>
</g>
<g id="character_travel-planning-53">
	<path class="st4_travel-planning-53" d="M187.7,147.5c-1.5-1-3.7,3.4-3.7,3.4c-0.5-0.9-1-1.7-1.7-2.4c-0.8-0.7-3.8,2.6-4.9,4.1s-3.4,9.1-3.4,9.1&#10;&#9;&#9;l-8.5,7.4c4.4,3.1,8.6,6.2,12.7,9.6l6.6-7.8c0,0,9.3-7.3,10.1-12.4S189.2,148.4,187.7,147.5z"/>
	<path class="st1_travel-planning-53" d="M178.3,180.4c-0.4,0-0.8-0.1-1.1-0.4c-4.3-3.6-8.8-6.8-12.6-9.5c-0.8-0.5-1-1.6-0.4-2.4&#10;&#9;&#9;c0.1-0.1,0.2-0.2,0.3-0.3l8.1-7.1c0.7-2.3,2.4-7.6,3.5-9.1c0.1-0.2,3.5-4.6,5.8-4.9c0.6-0.1,1.2,0.1,1.7,0.5&#10;&#9;&#9;c0.2,0.2,0.4,0.3,0.5,0.5c0.6-0.9,1.5-1.6,2.5-2c0.7-0.2,1.5-0.1,2.1,0.3l0,0c0.9,0.6,9.1,6.3,8,12.7c-0.9,5.4-9.1,12.1-10.6,13.3&#10;&#9;&#9;l-6.4,7.7C179.3,180.1,178.8,180.3,178.3,180.4z M168.3,168.9c3.1,2.2,6.4,4.6,9.7,7.4l5.4-6.5c0.1-0.1,0.2-0.2,0.2-0.2&#10;&#9;&#9;c3.4-2.6,8.9-8.1,9.5-11.3s-3.5-7.1-6.1-9c-0.6,0.7-1.2,1.5-1.6,2.4c-0.3,0.6-0.9,1-1.5,1c-0.6,0-1.2-0.3-1.6-0.9&#10;&#9;&#9;c-0.2-0.4-0.5-0.9-0.8-1.3c-1.1,0.9-2.1,2-2.9,3.1c-0.6,0.8-2.1,5-3.1,8.5c-0.1,0.3-0.3,0.6-0.5,0.8L168.3,168.9z"/>
	<path class="st4_travel-planning-53" d="M182.3,148.4c0,0,7.5,9.1,6.6,10.8s-4.7,5-7.9-1.9L182.3,148.4z"/>
	<path class="st1_travel-planning-53" d="M185.4,163.3h-0.1c-2.3-0.1-4.3-1.8-5.9-5.2c-0.4-0.9,0-1.9,0.8-2.3c0.9-0.4,1.9,0,2.3,0.8&#10;&#9;&#9;c0.9,2,1.9,3.1,2.8,3.2c0.7-0.1,1.4-0.5,1.8-1.2c-0.4-1.4-3.4-5.8-6.2-9.2c-0.6-0.8-0.4-1.9,0.4-2.4c0.7-0.5,1.7-0.4,2.3,0.2&#10;&#9;&#9;c8.2,10,7.2,11.9,6.8,12.8C189.4,161.9,187.5,163.1,185.4,163.3z M187.2,158.9L187.2,158.9z"/>
	<path class="st1_travel-planning-53" d="M70.3,375.9L70.3,375.9z"/>
	<path class="st3_travel-planning-53 targetColor" d="M168.2,164.2c-11.6,11.3-25.5,23.3-29.1,25.6c-5.7,1.3-18.1-0.6-36.4-3.6c-6-1-11.7,3-12.7,9s3,11.7,9,12.7&#10;&#9;&#9;c17.6,2.9,38.3,6.8,48.8,2.1c8.1-3.6,22.7-20.3,32.3-32.9C176.9,173.1,171.6,168.1,168.2,164.2z" style="fill: rgb(255, 105, 0);"/>
	<path class="st1_travel-planning-53" d="M134.3,213.9c-9.9,0-21.7-2-32.6-3.8l-2.9-0.5c-6.9-1.3-11.5-8-10.2-14.9c1.3-6.7,7.6-11.3,14.4-10.3&#10;&#9;&#9;c17.2,2.9,29.9,4.8,35.4,3.7c3.8-2.5,17.1-14,28.6-25.2c0.3-0.3,0.8-0.5,1.3-0.5c0.5,0,0.9,0.2,1.2,0.6c1.4,1.6,3.2,3.5,5.1,5.4&#10;&#9;&#9;c2.5,2.6,5,5.2,7,7.6c0.5,0.6,0.5,1.5,0,2.1c-10,13.1-24.6,29.7-33,33.4C144.8,213.2,139.9,213.9,134.3,213.9z M100.8,187.7&#10;&#9;&#9;c-5.1,0-9.3,4.1-9.3,9.3c0,4.6,3.3,8.5,7.8,9.2l2.9,0.5c16.6,2.8,35.5,6,44.9,1.8c7.1-3.1,20.4-17.8,30.8-31.2&#10;&#9;&#9;c-1.7-2-3.8-4.2-5.9-6.3c-1.4-1.5-2.8-2.9-4-4.2c-10.9,10.4-24.2,22.1-28.1,24.5c-0.2,0.1-0.3,0.2-0.5,0.2c-6,1.4-18-0.4-37-3.6&#10;&#9;&#9;C101.9,187.7,101.4,187.7,100.8,187.7L100.8,187.7z"/>
	
		<rect x="19.3" y="194.2" transform="matrix(4.693215e-02 -0.9989 0.9989 4.693215e-02 -161.7675 268.1764)" class="st5_travel-planning-53" width="80.8" height="49.4"/>
	<path class="st1_travel-planning-53" d="M82.4,262.1L82.4,262.1L33,259.8c-0.9,0-1.7-0.9-1.6-1.8l3.8-80.7c0-0.9,0.8-1.7,1.8-1.7c0,0,0.1,0,0.1,0&#10;&#9;&#9;l49.3,2.3c0.5,0,0.9,0.2,1.2,0.6c0.3,0.3,0.5,0.8,0.4,1.2l-3.8,80.7C84.1,261.4,83.3,262.1,82.4,262.1z M34.9,256.4l45.8,2.1&#10;&#9;&#9;l3.6-77.3l-45.8-2.2L34.9,256.4z"/>
	<path class="st5_travel-planning-53" d="M36,177.3l1.8,0.1c5,0.2,8.8,4.4,8.6,9.4l-2.9,62.7c-0.2,5-4.4,8.8-9.4,8.6l-1.8-0.1c-5-0.2-8.8-4.4-8.6-9.4&#10;&#9;&#9;l2.9-62.7C26.9,180.9,31.1,177.1,36,177.3z"/>
	<path class="st1_travel-planning-53" d="M33.6,259.8H33c-6.4-0.3-11.3-5.8-11-12.1l2.9-61c-0.2-6.4,4.8-11.8,11.2-12s11.8,4.8,12,11.2&#10;&#9;&#9;c0,0.7,0,1.3-0.1,2l-2.9,61C44.8,254.9,39.8,259.8,33.6,259.8z M36.4,179.1c-4.4,0-7.9,3.4-8.1,7.8l-2.9,61&#10;&#9;&#9;c-0.2,4.5,3.3,8.3,7.8,8.5l0,0c2.2,0.1,4.3-0.6,5.9-2.1c1.6-1.5,2.6-3.5,2.7-5.6l2.9-61c0.2-4.5-3.3-8.3-7.8-8.5L36.4,179.1z"/>
	
		<rect x="58.6" y="144.4" transform="matrix(4.693215e-02 -0.9989 0.9989 4.693215e-02 -103.4522 229.7959)" class="st6_travel-planning-53" width="20.3" height="49.3"/>
	<path class="st1_travel-planning-53" d="M92.9,182.1L92.9,182.1l-49.4-2.3c-0.5,0-0.9-0.2-1.2-0.6c-0.3-0.3-0.5-0.8-0.5-1.2l1-20.2&#10;&#9;&#9;c0-0.9,0.8-1.7,1.8-1.7c0,0,0,0,0,0l49.3,2.3c0.5,0,0.9,0.2,1.2,0.6c0.3,0.3,0.5,0.8,0.4,1.2l-1,20.2&#10;&#9;&#9;C94.6,181.4,93.8,182.1,92.9,182.1z M45.4,176.4l45.8,2.2l0.8-16.8l-45.8-2.2L45.4,176.4z"/>
	<path class="st6_travel-planning-53" d="M43,157.7l3,0.1c4.6,0.2,8.2,4.1,8,8.8l-0.2,3.5c-0.2,4.6-4.1,8.2-8.8,8l-3-0.1c-4.6-0.2-8.2-4.1-8-8.8&#10;&#9;&#9;l0.2-3.5C34.5,161.1,38.4,157.5,43,157.7z"/>
	<path class="st1_travel-planning-53" d="M44.1,179.8h-0.6c-6.4-0.3-11.4-5.7-11.1-12.1v-0.5c0.1-3.1,1.5-6,3.8-8.1c4.8-4.3,12.1-4,16.4,0.8&#10;&#9;&#9;c2.1,2.3,3.1,5.3,3,8.4v0.5C55.4,174.9,50.3,179.8,44.1,179.8L44.1,179.8z M44.1,159.5c-4.4,0-7.9,3.4-8.2,7.8v0.5&#10;&#9;&#9;c-0.2,4.5,3.3,8.3,7.8,8.5l0,0c2.2,0.1,4.3-0.6,5.9-2.1c1.6-1.5,2.6-3.5,2.7-5.6v-0.5c0.2-4.5-3.3-8.3-7.8-8.5L44.1,159.5z"/>
	<path class="st3_travel-planning-53 targetColor" d="M109.9,258.2l-57.1,5.9l9.2-75.2c0.6-4.7,5-8,9.7-7.3c0,0,0,0,0,0l39.4,5.5c4.7,0.7,8,5,7.3,9.7L109.9,258.2z" style="fill: rgb(255, 105, 0);"/>
	<path class="st1_travel-planning-53" d="M109.9,260h-0.2l-58.5,7.9c-0.9-0.1-1.6-1-1.5-1.9c0,0,0,0,0,0l10-72.4c1.2-8.3,8.9-14.2,17.2-13l29.7,4.1&#10;&#9;&#9;c8.3,1.2,14.2,8.8,13,17.2c0,0,0,0,0,0l-7.9,56.6C111.5,259.4,110.8,260,109.9,260z M53.4,263.2l55-6.9l7.7-54.9&#10;&#9;&#9;c0.9-6.4-3.6-12.4-10-13.3c0,0,0,0,0,0l-29.7-4.1c-6.4-0.9-12.4,3.6-13.3,10.1L53.4,263.2z"/>
	<path class="st1_travel-planning-53" d="M116.2,215.8h-0.4c-1.3-0.2-2.3-1.3-2.2-2.6c-0.1-3.2-3.6-23.8-15.5-27.3c-1.4-0.4-2.2-1.9-1.8-3.2&#10;&#9;&#9;s1.9-2.2,3.2-1.8l0,0c6.8,2.1,12.3,8.3,15.9,17.9c2.5,6.8,3.4,13.7,3.2,14.8C118.6,214.8,117.5,215.8,116.2,215.8z"/>
	<path class="st1_travel-planning-53" d="M49.6,240.5c-1.4,0-2.5-1.2-2.5-2.7c0-1.3,1.1-2.4,2.4-2.5c6.7-0.3,12-6.2,15.3-11.1&#10;&#9;&#9;c7.5-11.2,10.5-26,8.9-30.5c-0.8-2.5-2.5-4.5-4.9-5.6c-5.8-2.6-13.9,0.6-14,0.6c-1.3,0.5-2.8-0.2-3.3-1.5c-0.5-1.3,0.1-2.7,1.4-3.3&#10;&#9;&#9;c0.4-0.2,10.2-4.1,18-0.6c3.7,1.6,6.5,4.8,7.7,8.6c2.6,7.2-1.9,23.9-9.4,35.2c-5.6,8.4-12.3,13.1-19.3,13.4L49.6,240.5z"/>
	<path class="st7_travel-planning-53" d="M93.3,102.4c0.9-0.1,1.8-0.2,2.7-0.3c5.7-0.6,11.9-0.4,16.8,2.6c-0.2-1.5-0.1-3.1,0.2-4.6&#10;&#9;&#9;c0-0.4,0.2-0.7,0.6-0.9c0.4-0.2,1,0.1,1.3,0.4c2.4,2,4.5,4.5,6.2,7.2c0-2.4,0.4-4.9,1.3-7.2c3.5,1.5,6.2,4.5,7.1,8.2&#10;&#9;&#9;c0.4-1,0.9-1.9,1.6-2.7c0.2-0.3,0.5-0.4,0.8-0.5c0.3,0,0.6,0.1,0.8,0.3c5.6,4.4,7.9,11.8,5.6,18.6c-1.6,4.5-5,8-8.2,11.4&#10;&#9;&#9;c-1.7,1.6-3.2,3.4-4.6,5.3c-1.2,2.1-0.8,4.2-1.2,6.6c-0.5,2.2-1.2,4.4-1.8,6.6c-0.3,1.2-3.5,13.2-3.9,13.2l-58.9-4.3&#10;&#9;&#9;c-1.3-0.1-0.3-9.1-0.3-9.9c0.1-4.8-2.6-10-3.3-14.9c-0.8-5-0.4-10.1,1.4-14.8c1.2-2.9,3.2-5.7,6.1-6.6c0.9-0.2,1.8-0.5,2.7-0.8&#10;&#9;&#9;c1.1-0.6,2-1.4,2.8-2.3C75.4,106.6,84.3,103.6,93.3,102.4z"/>
	<path class="st1_travel-planning-53" d="M118.6,168.7h-0.2l-29.5-2.2l-29.5-2.2c-0.6-0.1-1.2-0.4-1.6-0.8c-0.9-1.1-1.2-2.9-0.6-10.3&#10;&#9;&#9;c0-0.4,0.1-0.7,0.1-0.8c0.1-2.5-0.8-5.2-1.6-8c-0.7-2.1-1.3-4.3-1.7-6.6c-0.9-5.3-0.3-10.7,1.6-15.8c1.6-4,4.2-6.8,7.3-7.8&#10;&#9;&#9;c0.4-0.1,0.8-0.2,1.2-0.3c0.4-0.1,0.9-0.2,1.3-0.4c0.7-0.4,1.4-1,1.9-1.6l0.3-0.3c5.9-5.9,14.4-9.6,25.4-11.1l0,0&#10;&#9;&#9;c0.9-0.1,1.8-0.2,2.7-0.3c4.4-0.4,10-0.6,15,1.3c0.1-0.6,0.2-1.3,0.3-1.9c0.2-1,0.8-1.8,1.6-2.3c1.2-0.5,2.6-0.3,3.5,0.7&#10;&#9;&#9;c1.3,1.1,2.4,2.2,3.5,3.5c0.2-0.9,0.5-1.7,0.8-2.6c0.2-0.5,0.6-0.9,1.1-1.2c0.5-0.2,1.1-0.2,1.6,0c2.8,1.2,5.2,3.2,6.7,5.8&#10;&#9;&#9;c0.5-0.5,1.2-0.8,1.9-0.9c0.8,0,1.5,0.2,2.1,0.7c6.4,4.9,8.9,13.3,6.3,20.9c-1.6,4.6-4.9,8.1-8,11.4l-0.6,0.7&#10;&#9;&#9;c-0.4,0.4-0.7,0.8-1.1,1.2c-1.2,1.1-2.3,2.4-3.2,3.8c-0.5,1-0.7,2.1-0.7,3.2c0,0.9-0.1,1.9-0.3,2.8c-0.4,1.8-0.9,3.6-1.4,5.3&#10;&#9;&#9;c-0.2,0.5-0.3,1-0.4,1.5c-0.1,0.2-0.2,0.8-0.4,1.6c-0.5,1.8-1.3,4.7-2,7.2C120.7,167.3,120.2,168.7,118.6,168.7z M61,160.4&#10;&#9;&#9;l28.3,2.1l28,2.1c0.8-2.4,2.3-7.9,2.8-10l0.5-1.7l0.4-1.5c0.5-1.6,1-3.3,1.3-5c0.1-0.7,0.2-1.5,0.2-2.2c0-1.7,0.4-3.5,1.2-5&#10;&#9;&#9;c1.1-1.6,2.3-3.2,3.7-4.5l1.1-1.1l0.6-0.7c2.9-3.1,5.8-6.2,7.1-10c1.9-5.7,0.2-11.9-4.3-15.8c-0.3,0.4-0.6,0.9-0.8,1.4&#10;&#9;&#9;c-0.4,1-1.6,1.5-2.6,1.1c-0.6-0.2-1.1-0.8-1.2-1.4c-0.6-2.3-2-4.4-3.9-5.7c-0.3,1.4-0.5,2.8-0.5,4.2c0,1.1-0.9,2-2.1,1.9&#10;&#9;&#9;c-0.7,0-1.3-0.4-1.6-0.9c-1.3-2.1-2.9-4-4.7-5.7c-0.1,0.8-0.1,1.6,0,2.4c0.1,1.1-0.7,2.1-1.8,2.2c-0.4,0-0.8,0-1.2-0.3&#10;&#9;&#9;c-4.8-2.9-10.8-2.7-15.6-2.3c-0.9,0.1-1.7,0.2-2.6,0.3l0,0c-10.1,1.3-17.8,4.7-23.1,10l-0.3,0.3c-0.9,1-1.9,1.8-3.1,2.4&#10;&#9;&#9;c-0.6,0.3-1.3,0.5-2,0.7c-0.3,0.1-0.6,0.2-0.9,0.2c-2.7,0.9-4.2,3.8-4.9,5.5c-1.6,4.4-2.1,9.2-1.3,13.8c0.3,2,0.8,4,1.5,5.9&#10;&#9;&#9;c0.9,3,1.9,6.2,1.8,9.3c0,0.1,0,0.5-0.1,1.1C61,155.8,60.9,158.1,61,160.4z M61.1,161.2L61.1,161.2z M59.8,160.3L59.8,160.3z"/>
	<path class="st4_travel-planning-53" d="M88.9,188.8l11,0.8l0,0l-0.6,8.2c-0.1,1.5-1.4,2.6-2.9,2.5l-5.6-0.4c-1.5-0.1-2.6-1.4-2.5-2.9L88.9,188.8&#10;&#9;&#9;L88.9,188.8z"/>
	<path class="st1_travel-planning-53" d="M94.7,201.9h-0.5l0,0l-1.7-0.1c-3.5-0.3-6.1-3.3-5.9-6.8c0,0,0,0,0,0l0.5-6.3c0-0.5,0.3-0.9,0.6-1.2&#10;&#9;&#9;c0.3-0.3,0.8-0.5,1.2-0.5l10.9,0.8c0.5,0,0.9,0.2,1.2,0.6c0.3,0.3,0.4,0.8,0.4,1.3l-0.5,6.3C100.8,199.3,98,201.8,94.7,201.9&#10;&#9;&#9;L94.7,201.9z M94.5,198.4c1.6,0.1,3-1.1,3.1-2.7c0,0,0,0,0,0l0.3-4.6l-7.5-0.6l-0.3,4.6c-0.1,1.6,1.1,3,2.7,3.1c0,0,0,0,0,0&#10;&#9;&#9;L94.5,198.4z"/>
	
		<ellipse transform="matrix(7.376137e-02 -0.9973 0.9973 7.376137e-02 -48.0864 276.2397)" class="st4_travel-planning-53" cx="124.7" cy="164" rx="9.2" ry="8.2"/>
	<path class="st1_travel-planning-53" d="M124.6,174.9h-0.7c-2.7-0.2-5.2-1.6-6.8-3.8c-3.5-4.7-3-11.1,1.1-15.2c1.9-1.9,4.6-2.9,7.3-2.7&#10;&#9;&#9;c5.5,0.4,9.5,5.6,9.1,11.6c-0.2,2.8-1.4,5.4-3.4,7.4C129.4,173.9,127,174.9,124.6,174.9z M124.8,156.6c-1.6,0-3.1,0.7-4.2,1.8&#10;&#9;&#9;c-2.8,2.9-3.2,7.4-0.8,10.6c1.9,2.6,5.6,3.2,8.2,1.3c0.3-0.2,0.5-0.4,0.8-0.7c1.4-1.4,2.2-3.2,2.4-5.2l0,0c0.3-4.1-2.4-7.6-5.9-7.9&#10;&#9;&#9;L124.8,156.6z"/>
	<path class="st4_travel-planning-53" d="M93.8,191.7c-18-1.3-32.4-24.7-31.1-42.4l6.3,2.7l4.4-21.4c0,0,21.1,1.4,30.6,2.1c17.4,1.2,24.6-2.9,24.6-2.9&#10;&#9;&#9;l-2.4,32C124.9,179.6,111.8,193,93.8,191.7z"/>
	<path class="st1_travel-planning-53" d="M96.2,193.5c-0.8,0-1.7,0-2.5-0.1l0,0C74.8,192,59.7,167.5,61,149.2c0.1-1,0.9-1.7,1.9-1.6&#10;&#9;&#9;c0.2,0,0.4,0.1,0.6,0.1l4.3,1.9l4-19.3c0.2-0.8,0.9-1.4,1.8-1.3c0,0,21.1,1.4,30.6,2.1c16.7,1.2,23.6-2.6,23.6-2.6&#10;&#9;&#9;c0.8-0.5,1.9-0.2,2.4,0.6c0.2,0.3,0.2,0.6,0.2,1l-2.4,32c-0.5,8.7-4.2,17-10.5,23.1C111.7,190.7,104.1,193.6,96.2,193.5z M94,190&#10;&#9;&#9;c7.8,0.7,15.4-2,21.1-7.3c5.6-5.6,9-13,9.4-20.9l2.2-29.2c-3.6,1.2-10.9,2.8-22.8,1.9c-8-0.6-24.1-1.7-29.1-2l-4.1,19.9&#10;&#9;&#9;c-0.2,0.9-1.1,1.5-2.1,1.3c-0.1,0-0.2-0.1-0.3-0.1l-3.9-1.7C64.4,171.2,80.3,188.9,94,190L94,190z"/>
	<ellipse class="st1_travel-planning-53" cx="85.7" cy="153" rx="3" ry="3"/>
	<circle class="st1_travel-planning-53" cx="113.7" cy="156" r="3"/>
	<path class="st1_travel-planning-53" d="M104.6,165.2c-1.3,0-2.7-0.2-4-0.5c-0.9-0.2-1.5-1.2-1.2-2.1s1.2-1.5,2.1-1.2l0,0c1.1,0.3,2.3,0.4,3.4,0.4&#10;&#9;&#9;c-0.4-2.1-1-4.2-1.9-6.1c-0.3-0.9,0.1-1.9,1-2.2c0.8-0.3,1.7,0.1,2.1,0.8c1.4,3.3,2.9,7.6,1.8,9.6c-0.3,0.7-1,1.1-1.7,1.2&#10;&#9;&#9;C105.6,165.2,105.1,165.2,104.6,165.2z"/>
	<path class="st1_travel-planning-53" d="M94.1,150.5c-0.2,0-0.3,0-0.5,0l-14-2c-1.9-0.3-3.2-2-2.9-3.9c0.3-1.9,2-3.2,3.9-2.9l14,2c1.9,0.2,3.2,2,3,3.9&#10;&#9;&#9;C97.4,149.3,95.9,150.5,94.1,150.5L94.1,150.5z"/>
	<path class="st1_travel-planning-53" d="M106.7,149.9c-1.9,0.1-3.5-1.4-3.5-3.4s1.4-3.5,3.4-3.5l0,0l14.2-0.8c1.9-0.1,3.5,1.3,3.6,3.2&#10;&#9;&#9;s-1.3,3.5-3.2,3.6l-14.2,0.8L106.7,149.9z"/>
	<path class="st4_travel-planning-53" d="M69,152.1c0,0-7.4-6-12.2,0.7s-1.5,18.8,11.7,16.3L69,152.1z"/>
	<path class="st1_travel-planning-53" d="M65.2,171.1c-4.5,0-8.1-1.8-10.3-5.1c-2.7-4.4-2.5-10.1,0.5-14.3c1.3-2,3.5-3.4,5.9-3.7&#10;&#9;&#9;c4.5-0.6,8.6,2.6,8.8,2.8c0.7,0.6,0.9,1.7,0.3,2.4s-1.7,0.9-2.4,0.3l0,0c-0.1-0.1-3.2-2.5-6.1-2c-1.5,0.2-2.7,1.1-3.5,2.4&#10;&#9;&#9;c-2.2,3.1-2.3,7.2-0.4,10.4c1.9,3,5.6,4.1,10.3,3.2c0.9-0.2,1.8,0.4,2,1.4c0,0,0,0,0,0c0.2,0.9-0.4,1.8-1.4,2&#10;&#9;&#9;C67.6,171.1,66.4,171.1,65.2,171.1z"/>
	<path class="st1_travel-planning-53" d="M100.2,179L100.2,179c-5.6-0.2-16.5-3.5-17.5-14.7c-0.1-1,0.6-1.8,1.6-1.9c0.9-0.1,1.8,0.6,1.9,1.5&#10;&#9;&#9;c0,0,0,0,0,0c1,10.9,13.6,11.5,14.1,11.6c1,0.1,1.7,0.9,1.6,1.9C101.8,178.3,101.1,179,100.2,179L100.2,179z"/>
	<path class="st3_travel-planning-53 targetColor" d="M37.5,268.8c0.5-16.2,4.2-35,5.2-39.1c3.1-4.9,13.4-12.2,28.6-22.8c5-3.5,6.2-10.3,2.8-15.3&#10;&#9;&#9;c-3.5-5-10.3-6.2-15.3-2.8c-14.7,10.2-32.2,21.8-36.5,32.5c-3.3,8.2-2.1,30.4-0.2,46.1C27.1,267.9,32.3,268.4,37.5,268.8z" style="fill: rgb(255, 105, 0);"/>
	<path class="st1_travel-planning-53" d="M19.5,260.2c-1.4-15-1.8-32.3,1.1-39.6c4.3-10.6,20.4-21.8,34.7-31.6l2.4-1.7c5.8-4,13.7-2.6,17.7,3.2&#10;&#9;&#9;c4,5.8,2.6,13.7-3.2,17.7c-14.8,10.3-24.8,17.4-28,22c-1.3,5.4-4.6,23.4-5.1,38.5c0,0.5-0.2,0.9-0.6,1.2c-0.3,0.3-0.8,0.5-1.3,0.4&#10;&#9;&#9;c-5.6-0.4-10.7-0.9-15.5-1.4c-0.8-0.1-1.4-0.7-1.5-1.5C20,265.2,19.7,262.8,19.5,260.2z M74.2,197c-0.5-5.1-5-8.9-10.1-8.4&#10;&#9;&#9;c-1.6,0.1-3.1,0.7-4.4,1.6l-2.4,1.7c-13.9,9.6-29.6,20.5-33.5,30.1c-2.9,7.2-2.3,27-0.3,43.9c3.9,0.4,7.9,0.8,12.3,1.1&#10;&#9;&#9;c0.7-12.7,2.5-25.3,5.2-37.7c0-0.2,0.1-0.4,0.2-0.5c3.3-5.1,13.2-12.2,29.1-23.2c2.2-1.5,3.7-4,4-6.7&#10;&#9;&#9;C74.3,198.2,74.3,197.6,74.2,197z"/>
	<path class="st4_travel-planning-53" d="M41.3,281.9c0,0,3.7-1.6,3.3-3.4s-7.3-5.8-7.3-5.8c0-0.5,0-3.4,0.1-4c0,0-14.6-1.4-15.5-1.4&#10;&#9;&#9;c0,0,0.6,4.8,0.8,6.2c0,0-1.2,16.3,1.3,19.2s15.4,1.2,17.4-0.6S41.3,281.9,41.3,281.9z"/>
	<path class="st1_travel-planning-53" d="M21,287.5c-0.3-4.6-0.3-9.2,0.1-13.9c-0.2-1.6-0.8-6-0.8-6c-0.1-0.5,0.1-1,0.4-1.4c0.3-0.4,0.8-0.6,1.3-0.6&#10;&#9;&#9;c0.9,0,12.2,1.1,15.7,1.4c0.9,0.1,1.6,0.8,1.6,1.7v1.4c0,0.5,0,1.1,0,1.6c3.3,1.9,6.8,4.5,7.2,6.4c0.4,2.2-1.6,3.8-3,4.7&#10;&#9;&#9;c0.7,3.3,1.5,8.7-0.7,10.6c-2,1.7-9.4,2.8-14,2.5c-2.9-0.2-4.8-0.9-5.8-2.1S21.3,290.3,21,287.5z M24.5,273.4c0,0.1,0,0.2,0,0.3&#10;&#9;&#9;c-0.5,7.5-0.3,16.5,0.9,17.9c1.6,1.9,13.2,0.6,14.9-0.8c0.5-0.8,0.2-4.9-0.7-8.6c-0.2-0.8,0.2-1.7,1-2l0,0c0.9-0.3,1.6-0.9,2.3-1.5&#10;&#9;&#9;c-0.7-0.9-3.5-2.9-6.4-4.6c-0.5-0.3-0.9-0.9-0.9-1.5c0-0.3,0-1.4,0-2.4c-4-0.4-9-0.8-11.7-1.1C24.1,270.7,24.4,272.6,24.5,273.4&#10;&#9;&#9;C24.5,273.3,24.5,273.4,24.5,273.4L24.5,273.4z"/>
	<path class="st1_travel-planning-53" d="M57.6,388.6l-15.3-19.3c30.8-22.6,49.5-39.9,52.1-47.9c2.1-6.3-17.8-32.9-25.4-59.6l40.2-3.4&#10;&#9;&#9;c3.9,13.5,11.6,59.7,5.8,77.4C109.5,352.7,70.8,378.3,57.6,388.6z"/>
	<path class="st1_travel-planning-53" d="M57.6,390.5c-0.6,0-1.1-0.3-1.5-0.7l-15.3-19.3c-0.3-0.4-0.5-0.9-0.4-1.5c0.1-0.5,0.3-1,0.8-1.3&#10;&#9;&#9;c29.7-21.8,49-39.3,51.4-46.9c0.7-2.2-3.8-10.9-8.2-19.3c-5.9-11.2-13.2-25.1-17.2-39.2c-0.3-1,0.3-2.1,1.4-2.4&#10;&#9;&#9;c0.1,0,0.2-0.1,0.3-0.1l40.2-3.4c0.9-0.1,1.7,0.5,2,1.4c3.4,11.9,11.9,59.7,5.8,78.6c-4.7,14.5-31.4,34-49.1,47&#10;&#9;&#9;c-3.6,2.6-6.6,4.9-8.9,6.6C58.5,390.4,58.1,390.5,57.6,390.5z M45,369.7l13,16.2c2.1-1.6,4.6-3.5,7.5-5.5&#10;&#9;&#9;c16.2-11.9,43.4-31.8,47.7-45.1c5.4-16.6-1.6-60.1-5.4-74.8l-36.2,3c4,13,10.8,25.8,16.2,36.2c6.6,12.5,9.7,18.6,8.5,22.3&#10;&#9;&#9;C92.6,333.3,63.3,356.2,45,369.7z"/>
	<polygon class="st1_travel-planning-53" points="97.8,397.9 51,261.2 68.8,259.9 122,392.6 &#9;"/>
	<path class="st1_travel-planning-53" d="M97.8,399.8c-0.8,0-1.6-0.5-1.8-1.3L50.5,267.9c-0.3-0.8,0-1.8,0.8-2.2l25.6-5.5c0.5-0.3,1.1-0.4,1.7-0.2&#10;&#9;&#9;c0.6,0.2,1,0.6,1.2,1.2L123.8,392c0.4,1-0.2,2.1-1.2,2.5c-0.1,0-0.2,0-0.2,0.1l-24.2,5.3C98.1,399.8,98,399.8,97.8,399.8z&#10;&#9;&#9; M54.6,268.1l44.5,127.6l20.4-4.5l-46.2-128L54.6,268.1z"/>
	<path class="st3_travel-planning-53 targetColor" d="M97.8,397.9l5.2,15.4l40.3-13.2c0.7-0.2,1.1-1,0.9-1.7c-0.1-0.4-0.5-0.8-1-0.9l-23.5-5.9L97.8,397.9z" style="fill: rgb(255, 105, 0);"/>
	<path class="st1_travel-planning-53" d="M103,415.2c-0.8,0-1.6-0.5-1.8-1.3L96,398.5c-0.3-1,0.2-2.1,1.2-2.4c0,0,0.1,0,0.1,0l21.8-6.4&#10;&#9;&#9;c0.3-0.1,0.7-0.1,1,0l23.5,5.9c1.8,0.5,2.8,2.2,2.4,4c-0.3,1.1-1.1,2-2.2,2.3l-40.3,13.2C103.4,415.2,103.2,415.2,103,415.2z&#10;&#9;&#9; M100.3,399.2l3.9,11.7l36.6-12l-21.1-5.3L100.3,399.2z"/>
	<path class="st3_travel-planning-53 targetColor" d="M42.3,369.3l-12.2,11.1l29.6,30.9c0.4,0.4,1,0.4,1.4,0c0.2-0.2,0.3-0.5,0.3-0.7l-2.5-25.2L42.3,369.3z" style="fill: rgb(255, 105, 0);"/>
	<path class="st1_travel-planning-53" d="M60.3,413.5c-0.8,0-1.5-0.3-2.1-0.9l-29.6-30.9c-0.7-0.8-0.7-2,0-2.7c0,0,0,0,0.1,0L41,367.9&#10;&#9;&#9;c0.7-0.7,1.9-0.7,2.6,0l16.5,16c0.3,0.3,0.5,0.7,0.6,1.2l2.5,25.2c0.1,1.2-0.5,2.4-1.7,2.9C61.2,413.4,60.8,413.5,60.3,413.5z&#10;&#9;&#9; M32.8,380.5L59.2,408L57,386.2l-14.8-14.2L32.8,380.5z"/>
	<path class="st0_travel-planning-53" d="M107.5,348c-0.4,0-0.8-0.3-0.9-0.6l-26.1-74.2c0-0.6,0.4-1,0.9-1.1c0.4,0,0.7,0.1,0.9,0.4l26.1,74.3&#10;&#9;&#9;c0.2,0.5-0.1,1-0.6,1.2C107.7,348,107.6,348,107.5,348z"/>
</g>
<g id="pins_travel-planning-53">
	<path class="st6_travel-planning-53" d="M247.8,135.7c-8.7,0-15.8,7-15.8,15.7c0,0,0,0,0,0c0,8.7,15.8,39.7,15.8,39.7s15.8-31,15.8-39.7&#10;&#9;&#9;C263.6,142.7,256.6,135.7,247.8,135.7C247.9,135.7,247.8,135.7,247.8,135.7z M247.8,157.6c-3.5,0-6.3-2.8-6.3-6.3&#10;&#9;&#9;c0-3.5,2.8-6.3,6.3-6.3c3.5,0,6.3,2.8,6.3,6.3c0,0,0,0,0,0C254.1,154.7,251.3,157.5,247.8,157.6z"/>
	<path class="st1_travel-planning-53" d="M247.8,193.1c-0.7,0-1.3-0.4-1.7-1c-1.7-3.2-16-31.7-16-40.7c0.2-9.8,8.3-17.5,18.1-17.3&#10;&#9;&#9;c9.4,0.2,17,7.8,17.3,17.3c0,8.9-14.3,37.4-16,40.7C249.2,192.7,248.5,193.1,247.8,193.1z M247.8,137.5c-7.7,0-13.9,6.2-13.9,13.9&#10;&#9;&#9;c0,6,8.8,25.3,13.9,35.5c5-10.3,13.9-29.5,13.9-35.5C261.7,143.8,255.5,137.5,247.8,137.5L247.8,137.5z M247.8,159.4&#10;&#9;&#9;c-4.6,0-8.3-3.7-8.3-8.3c0-4.6,3.7-8.3,8.3-8.3c4.6,0,8.3,3.7,8.3,8.3C256.1,155.7,252.4,159.4,247.8,159.4z M247.8,146.8&#10;&#9;&#9;c-2.5,0-4.5,2-4.5,4.5s2,4.5,4.5,4.5c2.5,0,4.5-2,4.5-4.5l0,0C252.3,148.8,250.3,146.8,247.8,146.8&#10;&#9;&#9;C247.9,146.8,247.9,146.8,247.8,146.8z"/>
	<path class="st5_travel-planning-53" d="M395.2,214.1c-8.7,0-15.8,7-15.8,15.7c0,0,0,0,0,0c0,8.7,15.8,39.8,15.8,39.8s15.8-31,15.8-39.8&#10;&#9;&#9;C411,221.2,403.9,214.1,395.2,214.1z M395.2,236c-3.5,0-6.3-2.8-6.3-6.3s2.8-6.3,6.3-6.3c3.5,0,6.3,2.8,6.3,6.3c0,0,0,0,0,0l0,0&#10;&#9;&#9;C401.6,233.1,398.7,236,395.2,236L395.2,236z"/>
	<path class="st1_travel-planning-53" d="M395.2,271.5c-0.7,0-1.3-0.4-1.7-1c-1.7-3.2-16-31.7-16-40.7c-0.2-9.8,7.5-17.9,17.3-18.1&#10;&#9;&#9;c9.8-0.2,17.9,7.5,18.1,17.3c0,0.3,0,0.6,0,0.8c0,8.9-14.3,37.4-16,40.7C396.5,271.1,395.9,271.5,395.2,271.5z M395.2,216.1&#10;&#9;&#9;c-7.7,0-13.9,6.2-13.9,13.9c0,6,8.8,25.3,13.9,35.5c5-10.3,13.9-29.4,13.9-35.5C409.1,222.3,402.9,216.1,395.2,216.1L395.2,216.1z&#10;&#9;&#9; M395.2,237.9c-4.6,0.1-8.3-3.6-8.4-8.2c-0.1-4.6,3.6-8.3,8.2-8.4c4.6-0.1,8.3,3.6,8.4,8.2v0.1&#10;&#9;&#9;C403.5,234.2,399.8,237.9,395.2,237.9C395.2,237.9,395.2,237.9,395.2,237.9L395.2,237.9z M395.2,225.2c-2.5,0-4.5,2-4.5,4.5&#10;&#9;&#9;c0,2.5,2,4.5,4.5,4.5c2.5,0,4.5-2,4.5-4.5l0,0l0,0C399.6,227.2,397.6,225.3,395.2,225.2L395.2,225.2z"/>
	<path class="st8_travel-planning-53" d="M282.4,245.7c-8.7,0-15.8,7-15.8,15.7c0,0,0,0,0,0c0,8.7,15.8,39.7,15.8,39.7s15.8-31,15.8-39.7&#10;&#9;&#9;c0-8.7-7-15.7-15.6-15.8C282.5,245.7,282.4,245.7,282.4,245.7z M282.4,267.7c-3.5,0-6.3-2.8-6.3-6.3s2.8-6.3,6.3-6.3&#10;&#9;&#9;c3.5,0,6.3,2.8,6.3,6.3v0C288.7,264.9,285.9,267.7,282.4,267.7C282.4,267.7,282.4,267.7,282.4,267.7z"/>
	<path class="st1_travel-planning-53" d="M282.4,303.2c-0.7,0-1.3-0.4-1.7-1c-1.7-3.2-16-31.7-16-40.7c0.2-9.8,8.3-17.5,18.1-17.3&#10;&#9;&#9;c9.4,0.2,17.1,7.8,17.3,17.2l0,0c0,8.9-14.3,37.4-16,40.7C283.8,302.7,283.1,303.2,282.4,303.2z M282.4,247.7&#10;&#9;&#9;c-7.7,0-13.9,6.2-13.9,13.9l0,0c0,6,8.8,25.3,13.9,35.5c5-10.3,13.9-29.5,13.9-35.5C296.3,253.9,290,247.7,282.4,247.7L282.4,247.7&#10;&#9;&#9;z M282.4,269.6c-4.6,0-8.3-3.6-8.3-8.2s3.6-8.3,8.2-8.3c4.6,0,8.3,3.6,8.3,8.2l0,0c0.1,4.5-3.5,8.2-8,8.3&#10;&#9;&#9;C282.5,269.6,282.4,269.6,282.4,269.6z M282.4,256.8c-2.5,0-4.5,2-4.5,4.5c0,2.5,2,4.5,4.5,4.5c2.5,0,4.5-2,4.5-4.5c0,0,0,0,0,0&#10;&#9;&#9;l0,0C286.8,258.8,284.8,256.8,282.4,256.8z"/>
	<path class="st5_travel-planning-53" d="M155.6,217.3c-8.7,0-15.8,7.1-15.8,15.8c0,0,0,0,0,0c0,8.7,15.8,39.7,15.8,39.7s15.8-31,15.8-39.7&#10;&#9;&#9;C171.4,224.4,164.3,217.3,155.6,217.3C155.6,217.3,155.6,217.3,155.6,217.3z M155.6,239.2c-3.5,0-6.3-2.9-6.3-6.4s2.9-6.3,6.4-6.3&#10;&#9;&#9;c3.5,0,6.3,2.9,6.3,6.3C162,236.4,159.2,239.2,155.6,239.2L155.6,239.2z"/>
	<path class="st1_travel-planning-53" d="M155.6,274.8c-0.7,0-1.3-0.4-1.6-1c-1.7-3.2-16-31.7-16-40.7c-0.2-9.8,7.5-17.9,17.3-18.2s17.9,7.5,18.2,17.3&#10;&#9;&#9;c0,0.3,0,0.6,0,0.8c0,8.9-14.3,37.4-16,40.7C157,274.4,156.3,274.8,155.6,274.8z M155.6,219.2c-7.7,0-13.9,6.2-13.9,13.9&#10;&#9;&#9;c0,0,0,0,0,0c0,6,8.8,25.3,13.9,35.5c5-10.3,13.9-29.4,13.9-35.5C169.5,225.5,163.3,219.3,155.6,219.2L155.6,219.2z M155.6,241.2&#10;&#9;&#9;c-4.6,0.1-8.3-3.6-8.4-8.2c-0.1-4.6,3.6-8.3,8.2-8.4c4.6-0.1,8.3,3.6,8.4,8.2v0.1C163.8,237.5,160.2,241.1,155.6,241.2L155.6,241.2&#10;&#9;&#9;z M155.6,228.4c-2.5,0-4.5,2-4.5,4.5s2,4.5,4.5,4.5c2.5,0,4.5-2,4.5-4.5l0,0C160,230.5,158.1,228.5,155.6,228.4z"/>
</g>
</svg>